<svg id="Layer_1" data-name="Layer 1" xmlns="http://www.w3.org/2000/svg" viewBox="0 0 2132.32 196.51"><defs><style>.cls-1{fill:#1c1610;}.cls-2{fill:#1f1913;}.cls-3{fill:#fdac4e;}.cls-4{fill:#fbb057;}.cls-5{fill:#fcb865;}.cls-6{fill:#fc8f18;}.cls-7{fill:#fda847;}.cls-8{fill:#fc9523;}.cls-9{fill:#fd9d31;}.cls-10{fill:#feb35a;}.cls-11{fill:#fca13b;}.cls-12{fill:#fda642;}.cls-13{fill:#fb9321;}.cls-14{fill:#fd992a;}.cls-15{fill:#fdab4b;}</style></defs><title>longminigolfarenaonline</title><path class="cls-1" d="M539.17,54.87C548.71,41.26,558,28.23,567,15.06a10.22,10.22,0,0,1,9.49-5q27.5.39,55,.16c4.63,0,6.53,1.31,6.42,6.29-.24,11.32,0,22.66.25,34,.09,3.87-1.49,5.49-5.12,5.74-2.16.15-4.3.5-6.46.69-7.46.68-7.48.67-7.48,8.43,0,28.83-.12,57.66.56,86.49.11,4.53,1.51,5.74,5.69,5.5,3.47-.2,7,.3,10.48.44,2.74.12,4.15,1.2,4.29,4.24.54,11.14,1.25,22.29,2,33.42.24,3.54-.78,5.07-4.68,5-26.16-.4-52.34.54-78.48-1.19-7.78-.52-8-.69-8.06-8.42,0-9.17.09-18.34,0-27.5,0-3.77,1.23-5.41,5.24-5.3s9.51,1.71,12-1,.7-8,.75-12.08c.17-14.67.21-29.33.29-44a10,10,0,0,0-1-5.05c-3.77,5.54-7.62,11-11.29,16.63a8.14,8.14,0,0,1-6.85,4.15c-5.82.33-11.62.9-17.41,1.56-3.58.41-5.87-.86-7.73-4-3.7-6.2-7.75-12.19-11.7-18.34-1.36,1.12-.94,2.16-.91,3.06.5,17.66,1.1,35.31,1.5,53,.06,2.9.75,4.22,3.84,4.28,3.49.07,7,.72,10.45.92,2.85.15,4.27,1.48,4.39,4.3.49,11.32,1,22.64,1.5,34,.13,2.78-1,3.91-3.81,3.84q-39.48-1-79-1.85c-2.27,0-3.28-1-3.47-3.24-1-11.13-2-22.24-1.82-33.43,0-3.34,1.59-4.9,4.9-4.82a11.18,11.18,0,0,0,2-.11c3.89-.56,9.25,1.67,11.34-1.21,1.91-2.64.65-7.67.61-11.64-.21-26.5-.54-53-.62-79.5,0-3.92-.63-5.46-5.08-5.29-11.26.43-11.55,1.46-12.69-10.9-1-10.63-.86-21.3-.69-32,.05-3.23,1.55-4.46,4.52-4.6,19.33-.9,38.65-.67,58-.06,3,.09,4.36,2.13,5.69,4.24Q525,32.41,536,50C537,51.48,538,53,539.17,54.87ZM521.75,104.3c3.61,8.69,8.77,14.65,19.38,11a2.36,2.36,0,0,1,1-.06c8.57.88,14-3.29,17.3-10.81l6.42-10.78,5.88-7.26v14.83a185.47,185.47,0,0,0-.34,22l-.18,24c-.06,1.65-.17,3.31-.18,5-.06,7.94,0,7.94-8,8.06-10.41.16-10.41.16-9.94,11,0,6.47.25,13-.19,19.41-.33,4.79,1.54,6.3,6,6.57,25.9,1.58,51.82.87,77.73,1.14,2.68,0,3.49-.85,3.3-3.43-.61-7.93-1.07-15.88-1.59-23.83a29.5,29.5,0,0,1-.27-5.45c.61-4.75-1.77-6.12-6-5.82a10.26,10.26,0,0,1-2-.15c-3.78-.42-8.34,1.09-11.17-1.12-3-2.37-.73-7.22-1.75-10.84,0-.16-.09-.32-.14-.48l-.27-24q0-11-.05-22,0-9.5,0-19,0-9,0-18A20.81,20.81,0,0,0,617,60.3c-.62-4,.89-5.51,5-5.33,3.59.15,7.21-.52,10.81-.9,2.26-.24,3.81-1.15,3-3.84l-.07-15c0-6.15-.22-12.3,0-18.43.12-3.35-1.23-4.32-4.33-4.32-18.61,0-37.21-.08-55.82-.12-1.83,0-3.65,0-4.89,1.8-4.64,6.62-9.77,12.89-13.81,19.92L546.63,48.71c-2.6,3.52-5.19,7-7.89,10.7-3.21-4.93-5.2-10-8.75-14.2-5.32-10.48-12.87-19.58-18.56-29.83a4.45,4.45,0,0,0-4-2.48c-18.81-.79-37.62-1-56.43,0-1.89.11-3.1.62-3.1,2.89,0,10.14-.62,20.3,1,30.39.1,10.1.1,10.1,9.67,10,7.23-.08,7.23-.08,8.06,8q.13,9,.26,18l.11,15q0,9.49.08,19,0,15.5.07,31a33,33,0,0,0-.09,5.44c.58,4.15-1.08,5.31-5.16,5.35-15.21.16-15.21.3-13.34,15.77a12.19,12.19,0,0,0,.34,1.45c-.29,5.84.61,11.61,1,17.41.14,2.29,1.17,2.65,3.13,2.69q37.66.85,75.33,1.87c2.82.07,3.88-.66,3.64-3.56-.49-6.13-.75-12.28-1.11-18.42,0-2.31,0-4.63-.06-6.95-.37-8.43-.39-8.42-8.56-9.23-9.93-1-9.92-1-10.54-11a6.6,6.6,0,0,0-.21-1l-.87-30.87q-.36-9.5-.71-19V87.14l6,8.2Z" transform="translate(-9.04 -7)"/><path class="cls-1" d="M1245.6,161.32l-5.06-15.56c-.66-2-2.36-1.47-3.78-1.47-8.16,0-16.33.15-24.49-.09-3.21-.1-4.08,1-4.65,4.06-1.67,9.07-1.85,9,7.12,10,7.91.82,8.11.8,8.71,8.61.75,9.63,1.09,19.28,1.68,28.92.2,3.18-1,4.4-4.29,4.53-23.13.89-46.27,1.83-69.39,3-4.63.24-6.75-1.31-7.4-5.74a226.42,226.42,0,0,1-2.2-31.86c0-2.77,1.34-4.32,3.72-4.32,12.38,0,14.74-7.67,16.64-18.19,7.58-41.88,17.73-83.2,28.11-124.47,1.22-4.86,4.41-5.27,8.13-5.44,12.18-.58,24.31,1,36.43,1.09,10.45,0,14.48,4.67,17.7,14.2,14.25,42.14,29.51,83.94,44.23,125.93,1.23,3.53,2.62,4.9,6.51,4.79,10.65-.29,10.66-.08,10.66,10.8,0,9-.08,18,0,27,0,2.86-.74,4.19-3.88,4.33-22.47,1-44.93,2-67.43,2.09-4.64,0-6.52-1.77-7.21-6.15a238.16,238.16,0,0,1-2.65-29.81c-.13-4.68,1.88-6.35,6.18-6.24C1241,161.36,1243,161.32,1245.6,161.32Zm.35,2.13c-1.66,0-3.32.09-5,0-4.79-.39-6.57,1.72-6,6.44s.78,9.58,1.15,14.37c.57,4.27,1.24,8.52,1.67,12.8.33,3.34,2,4.29,5.25,4.32,18.44.13,36.86-.74,55.26-1.68,4.47-.23,10.7,1.87,13-1.78,2.09-3.32.42-9,.41-13.66q0-9,0-18c-.16-2.11,1.62-5.1-2.9-5-4.07.09-9.19,1.76-12-.71s-2.94-7.4-4.31-11.24c-.38-1.07-.94-2.07-1.41-3.1a233.54,233.54,0,0,0-7.91-22.46c-3.12-7.45-4.48-15.53-8.11-22.79-2.78-8.48-5.38-17-8.92-25.23a242.94,242.94,0,0,0-9.3-25.91c-2.07-6.28-4.72-12.43-6.09-18.86-2.1-9.89-6.84-14.72-17.69-14.47s-21.51-1.43-32.33-1.2c-5.06.11-8.08,1.38-9.08,7.18-1.54,9-4.2,17.72-6.39,26.57q-3.15,13.61-6.31,27.22a210.18,210.18,0,0,0-5.39,23.52,243.57,243.57,0,0,0-5.53,25.49,252.39,252.39,0,0,0-5.18,27c-1.47,3.79-.66,8.29-7.21,9.36-13.26,2.18-13.16,2.81-11,16.66a99.41,99.41,0,0,0,1.69,18.86c.48,2.79,1.51,4.23,4.88,4.06,22.79-1.15,45.59-2.1,68.4-3,2.58-.1,3.58-.9,3.36-3.51-.46-5.47-.78-11-1.17-16.43.79-2.22-1-4.08-.92-6.18.08-3.43,1.59-7.72-.59-10s-6.81-1.51-10.35-2.06c-6.53-1-6.53-1-5.71-7.59a22,22,0,0,0,1.16-4.79c.09-4.55,2.32-5.67,6.61-5.48a225.28,225.28,0,0,0,24,0c4.43-.27,6.77,1.12,7.83,5.2,1.27,4.19,2.55,8.37,3.81,12.56C1248.13,161.47,1249,163.37,1246,163.45Z" transform="translate(-9.04 -7)"/><path class="cls-2" d="M80.94,201.32c-21.82.6-43.64,1.48-65.45.23-4.18-.24-5.79-1.46-5.76-5.88.06-10.65-.31-21.31-.68-32-.13-3.84,1.36-5.64,5.2-5.44a8.19,8.19,0,0,0,1,0c12.31-.46,12.37-.46,12.51-12.52.32-27.81.64-55.63,1.94-83.42.16-3.43-1.12-3.77-4-3.64-12.21.58-12.09.5-13-12-.65-8.82-.81-17.63-.79-26.46,0-4.46,1.46-6.68,6.42-6.55,27,.71,54,1.23,80.94,1.72,3.25.06,4.82,1,4.86,4.6.11,10.49.29,21,.87,31.46.28,5.17-1.83,7.26-6.71,7.57-3.65.24-7.27,1.09-10.91,1.19-3.25.1-4.57,1.16-4.87,4.58-1.32,15.45-1.66,30.93-2.29,46.41-.58,14-.62,28-1.16,42-.13,3.38.87,4.27,4.09,4,6.12-.53,13.57,1.23,18-1.68,4.3-2.79,3.74-10.83,5.5-16.52,1.27-4.12,2.25-8.33,3.2-12.54.63-2.8,2.21-3.83,5-3.62,10.3.75,20.48,2.41,30.68,4,3.23.49,4,2.41,4,5.2.58,21.81.69,43.63.58,65.45,0,3.6-1.95,3.94-4.79,3.94C123.91,201.29,102.43,201.32,80.94,201.32ZM31.11,88.22l-.57,29c-.81,11.33-.58,22.66-.51,34a14.86,14.86,0,0,0-.24,2.95c.55,4.47-1.28,6.36-5.83,6-3-.21-5.95.18-8.93.19-2.7,0-3.88,1.21-3.73,4,.27,4.95.4,9.91.58,14.86,0,5.16.24,10.33,0,15.48-.16,3.42.94,4.53,4.43,4.68,42.82,1.85,85.64,0,128.46-.15,2.26,0,3.34-.54,3.27-3-.17-5.65-.13-11.32-.17-17l-.12-24c-.15-7.49-.34-15-.41-22.45,0-2.33-.72-3.57-3.27-3.94-9.38-1.39-18.72-3-28.18-3.73-2.11-.18-3.36.27-3.93,2.62-2.22,9.19-4.62,18.34-7,27.5-.79,2.16-2,3.42-4.63,3.42-5,0-9.93.43-14.89.54-8.24.2-8.24.15-8.66-8q.45-17,.91-34l1-29q1.05-14.49,2.11-29c6-.93,12-2,18-2.72,2.62-.32,3.88-1.22,3.85-3.94-.06-6.12.38-12.24-.51-18.34-.09-4.15-.43-8.33-.19-12.46.21-3.46-1.34-4.15-4.33-4.22-12.49-.26-25-.78-37.47-1-13.66-.29-27.33-.27-41-.63-4.2-.11-5.69,1.33-5.33,5.49s.29,8.64.4,13c.31,6,.68,11.92.92,17.88.14,3.56,1.2,5.49,5.34,4.63,2.73-.57,5.62-.29,8.44-.47,2.07-.12,3.12.72,3.07,2.84A280.44,280.44,0,0,0,31.11,88.22Z" transform="translate(-9.04 -7)"/><path class="cls-2" d="M1856.34,140.75c-.36-4.15-.68-8.3-1.09-12.44-.36-3.55.9-5.2,4.74-5.12,9.16.18,18.33.22,27.49,0,3.88-.09,6.13.93,6.17,5.91.52-7.33,5.45-5.81,9.5-5.76,9.16.1,18.32.41,27.49.44,3.14,0,4.64,1,4.46,4.33-.12,2.32.12,4.66.16,7,.13,7.46.14,7.57-7.21,9.1-1.83.38-2,1.23-2.07,2.66-.36,10.32-.76,20.64-1.07,31,0,1.29-.78,3.41,1.78,3.16,2-.2,4.87,1.33,5.75-2.17.64-2.58,1.59-5.1,2-7.72.51-3.46,2.46-4.36,5.57-3.94,15.66,2.12,13.16-.35,13.68,13.8.21,5.66,0,11.33.16,17,.11,3.27-1.22,4.4-4.42,4.39-16.83,0-33.66,0-50.49.12-3.86,0-5.44-1.21-5.2-5.2a106.63,106.63,0,0,0-.16-12c-.15-3,1-4.48,4-4.15,2.54.28,3.42-.56,3.44-3.25.08-10.5.46-21,.64-31.49,0-1.09,1-3.27-1.2-3-6.26.61-5.45-3.7-5.6-7.47,0-.81-.17-1.61-.3-2.82-1.94,1.22-1.25,2.83-1.18,4,.2,3.15-1.14,4.84-4.21,4.8s-3.16,1.82-3.1,4.2c.4,16.83.6,33.66,1.11,50.48.12,4.1-1,5.31-5.31,6.23-10.7,2.31-17.57-1-21.23-11.28-.43-1.22-1-3.59-2.73-3-1.92.7-.73,2.64-.34,4.21,1.56,6.42.53,7.94-5.84,8.27-8.65.44-17.32.54-26,1.06-4.16.25-5.81-1.42-5.73-5.42a37.38,37.38,0,0,0-.37-6c-.53-3.74-.31-6.76,4.65-6.67,1.9,0,2.47-1.19,2.42-3-.29-10.83-.57-21.66-.72-32.48,0-2.28-1.23-2.37-2.84-2.2-3.37.34-4.28-1.46-4.36-4.49-.13-4.66-.53-9.31-.89-14-.24-3,1.23-4.3,4.1-4.22,6.49.16,13,.4,19.48.51,2.25,0,3.1,1.68,4.16,3.14q5.1,7,10.17,14.08a85.41,85.41,0,0,0,9.49,13.8c-.27-4.91.25-8.76-.92-12-.78-2.16-4.68,0-6.82-1.52C1857.16,141.32,1856.75,141,1856.34,140.75Zm66.84,11.48a15.22,15.22,0,0,0,.51-3.91c-.58-4.64,1.31-6.64,6-6.56,1.31,0,3.72.27,3.22-2.53,0-3.32,0-6.65.09-10,.08-2.23-.53-3.27-3-3.29-10-.07-20-.34-30-.52-1,0-2.48-.28-2.7.73a31.13,31.13,0,0,0,.15,13.35c.73,3.25,4.41.59,6.49,1.69q0,5.5,0,11l-.49,15c-.13,4.31-.39,8.61-.37,12.92,0,2.33-.73,3.18-3.14,3.19-1.37,0-4-1.45-4,1.89,0,3.64.15,7.31-.14,10.93-.26,3.34,1.07,4.22,4.22,4.18,12.79-.13,25.58,0,38.37-.07,14.59-.07,14.59-.1,12.81-15,0-3.82,0-7.64-.09-11.46,0-1,.18-2.25-1-2.62-3.81-1.23-7.88-2.14-11.73-1.6-2.58.37-2.13,4-2.74,6.25-2.12,7.85-2.08,7.71-9.86,7.49-2.81-.08-3.31-1.21-3.23-3.61.15-4.15.07-8.31.08-12.46Zm-75.94,31.87-.27-19.79.47-.09.46.06,9.26,15.94c1.92,3.45,4.31,6.73,5.68,10.4,3.37,9,9.32,12.41,18.63,9.7a1.67,1.67,0,0,1,.5,0c2.41.25,3.1-.92,3-3.21-.21-5.62-.22-11.24-.31-16.86.1-5.67.27-11.35-.59-17q-.15-8.52-.31-17c1-2.1-2-6.26,3-6.29,3.79,0,4.85-1.92,4.3-5.34a9.56,9.56,0,0,1-.08-3c.9-5.44-1.74-6.68-6.66-6.35-5.61.38-11.28-.06-16.92.09-12,.3-10-2.56-9.33,10.78,0,.49.15,1,.21,1.48.18,1.76,1.08,2.85,2.92,2.51,5-.91,6.33,1.77,6.06,6.08l.56,14.87-1.93.15L1854,144.05c-2-3.05-4.33-5.92-5.87-9.17-3.31-7-8.46-9.25-16.16-9-12.17.33-12.18-.2-11.24,11.68a8.38,8.38,0,0,1,.07,1c-.17,3.66.21,6.76,5.23,5.69,1.51-.32,2,.73,2.14,2l.66,16q0,11.47,0,23c-7.56,2.3-7.46,2.29-6.69,10.55.28,3.05,1.16,4.34,4.54,4.07,6.44-.5,12.92-.48,19.37-.71,10.21-.36,10.1-.35,9-10.44-.27-2.44-.92-3.58-3.47-3.61A21.69,21.69,0,0,1,1847.24,184.1Zm8.54-1c-2.21-3.74-3.69-7.43-6.7-10.78C1849.17,184.07,1848.34,182.34,1855.78,183.13Z" transform="translate(-9.04 -7)"/><path class="cls-1" d="M1638.9,103.59c-.16-14.39,1.16-28,5.5-41.05,10.86-32.74,34.48-49.78,67.93-54.28,14.8-2,29.63-1.93,44.08,2.37,26.51,7.9,44.36,25.45,53,51.33,10.32,30.75,9.6,61.81-3.42,91.69-13.85,31.78-38.82,47.94-73.63,48.62-13.25.26-26.31-1-38.84-5.47-29.23-10.39-45.14-32.11-51.59-61.61A138.15,138.15,0,0,1,1638.9,103.59Zm3.71,21.76a93.08,93.08,0,0,0,3.67,17,72.68,72.68,0,0,0,8,19.08,62.68,62.68,0,0,0,19.49,22.16,41.52,41.52,0,0,0,10.44,6.68c17.66,8.69,36.4,11.11,55.79,9.29,15.75-1.47,30.11-6.5,42.09-17.25a62.58,62.58,0,0,0,16.28-19.07,86.67,86.67,0,0,0,11.82-29.95A115.12,115.12,0,0,0,1813.62,97c-.56-11.93-2-23.68-6.73-34.8.44-2.18-1.48-3.48-2.18-5.2-3.32-8.15-7.35-16-14-22.13-6.41-6.49-13.23-12.53-21.43-16.65-20.72-10.39-42.53-10.92-64.7-6.29-15.71,3.28-30,9.51-40.81,22A61.91,61.91,0,0,0,1648,60.23a78.61,78.61,0,0,0-5.84,25,101.08,101.08,0,0,0-1,21A110.36,110.36,0,0,0,1642.61,125.35Z" transform="translate(-9.04 -7)"/><path class="cls-2" d="M2037.34,140.75c-.36-4.14-.69-8.29-1.09-12.43-.35-3.52.86-5.21,4.71-5.13q14.23.27,28.46,0c3.51-.06,4.82,1.31,4.67,4.7a55,55,0,0,0,.23,7.48c.33,3.79-.27,6.72-5,6.61-3.07-.06-2.25,2.21-2.22,3.87.31,16.8.53,33.61,1.07,50.41.13,4.34-.88,6.09-5.62,6.39-13.74.85-13.72,1.09-20.49-10.54-.5-.86-1-1.76-1.49-2.59s-.92-1.54-1.93-1.14-.66,1.41-.63,2.15c.29,10.34.3,10.33-10,10.66-7.32.24-14.64.43-22,.8-3.39.17-4.93-1.2-5-4.56a71.88,71.88,0,0,0-.5-7.47c-.43-3.44,0-6,4.36-6,2.52,0,2.84-1.6,2.78-3.69-.3-10.48-.58-21-.7-31.45,0-2.3-.92-2.85-3-2.62-3,.33-4.15-1.1-4.25-4.05-.14-4.65-.53-9.3-.92-13.94-.26-3.11.88-4.77,4.16-4.67,6.49.19,13,.41,19.46.52,2.24,0,3.08,1.7,4.14,3.16q5.1,7,10.16,14.06a85.41,85.41,0,0,0,9.49,13.8c-.27-4.91.25-8.76-.92-12-.78-2.16-4.68,0-6.82-1.52C2038.16,141.32,2037.75,141,2037.34,140.75Zm4.84,46.47c2.12,3.76,4.25,7.5,6.34,11.28a4.27,4.27,0,0,0,3.82,2.6c12.87.88,13.79.1,13.57-12.39,0-.83-.11-1.66-.17-2.49q-.09-6-.19-12l-.57-15-.23-16c-.18-2.21.64-3.45,3.05-3.33,3.78.18,4.86-1.86,4.31-5.29a11.3,11.3,0,0,1-.09-3.48c.81-5-1.58-6.14-6.15-5.85-5.79.37-11.62.06-17.43.06-10.47,0-10.37,0-9.42,10.35.29,3.19,1.23,4.9,4.77,4.58,2-.18,4.57-.44,4.42,3q.33,8,.67,16c-.3,2.11-1.12,2.66-2.72.91l-10.67-15.6c-2.21-3.31-4.8-6.44-6.54-10-3.33-6.8-8.36-8.92-15.87-8.72-12.18.31-12.2-.2-11.28,12.14,0,.17,0,.33,0,.5-.16,3.63.17,6.79,5.22,5.71,1.51-.32,2,.73,2.15,2q.3,7,.62,14l.21,18c-.24,3.95.8,8.71-5.85,8.24-1.57-.11-1.43,1.53-1.38,2.68.1,2.16.34,4.31.35,6.46,0,3.14,1.34,4.34,4.58,4.14,6.29-.39,12.6-.3,18.89-.65,13.39-.73,10.09.17,9.35-11-.12-1.71-.51-3-2.49-2.87-5.37.44-5.71-3.11-5.7-7V164.71l.92-.17q3.08,4.86,6.13,9.72Zm-5.4-4.22-6.52-11.22C2029.8,182.76,2029.8,182.76,2036.78,183Z" transform="translate(-9.04 -7)"/><path class="cls-2" d="M1497.34,140.75c-.36-4.14-.69-8.29-1.09-12.43-.35-3.52.86-5.21,4.71-5.13q14.24.27,28.46,0c3.51-.06,4.82,1.31,4.67,4.7a55,55,0,0,0,.23,7.48c.33,3.79-.27,6.72-5,6.61-3.07-.06-2.25,2.21-2.22,3.87.31,16.8.53,33.61,1.07,50.41.13,4.34-.88,6.09-5.62,6.39-13.74.85-13.72,1.09-20.49-10.54-.5-.86-1-1.76-1.49-2.59s-.92-1.54-1.93-1.14-.66,1.41-.63,2.15c.29,10.34.3,10.33-10,10.66-7.32.24-14.64.43-22,.8-3.39.17-4.93-1.2-5-4.56a74.73,74.73,0,0,0-.49-7.47c-.44-3.44,0-6,4.35-6,2.52,0,2.84-1.6,2.78-3.69-.3-10.48-.58-21-.7-31.45,0-2.3-.92-2.85-3-2.62-3,.33-4.15-1.1-4.25-4.05-.14-4.65-.53-9.3-.92-13.94-.26-3.11.89-4.77,4.16-4.67,6.49.19,13,.41,19.46.52,2.24,0,3.08,1.7,4.14,3.16q5.1,7,10.16,14.06a85.41,85.41,0,0,0,9.49,13.8c-.27-4.91.25-8.76-.92-12-.78-2.16-4.68,0-6.82-1.52C1498.16,141.32,1497.75,141,1497.34,140.75Zm28.39,44.46q-.11-6-.2-12-.3-8-.59-16-.11-7.5-.19-15c.17-.95.17-2.12,1.6-2,5.85.44,6.31-3.14,5.71-7.58a10.65,10.65,0,0,1-.08-3c.49-3.66-1.3-4.44-4.6-4.34-6.31.21-12.63,0-19,0-10.47,0-10.36,0-9.42,10.37.3,3.23,1.3,4.85,4.81,4.59,1.57-.12,3.88-.86,4.35,1.93q.35,7.5.67,15c-.68,1.21.68,3.38-1.25,3.79s-1.82-2.43-3.45-2.86c-1.64-5-5.25-8.79-8.27-12.94l-11.35-16.89c-.75-1.12-1.52-2.07-3.11-2.09-6-.06-12-.25-17.92-.34-1,0-2.37,0-2.32,1.26.21,5.3.13,10.7,1.21,15.84.58,2.8,4.6,0,6.52,1.8a2,2,0,0,1,.26.42q.3,6.51.58,13,.13,7,.26,14-.07,6.43-.14,12.87c-7.5,2.49-8,3.36-6.58,11.58.06.33.12.66.15,1,.15,1.67,1.15,2.23,2.71,2.16,9.28-.44,18.57-.84,27.85-1.3,1.28-.06,2.92,0,2.77-2-.27-3.47,0-7.26-1.32-10.28-1.14-2.55-4.87-.65-7.35-1.35q-.18-6.34-.34-12.7v-7.49l1-.13,6.13,9.66a75.49,75.49,0,0,0,7,12.15c2.34,4.19,4.72,8.36,7,12.59a3.79,3.79,0,0,0,3.59,2.07c13,.86,13.67.32,13.5-12.38C1525.89,187.53,1525.79,186.37,1525.73,185.21Zm-29-2.21-6.52-11.24C1489.8,182.76,1489.8,182.76,1496.78,183Z" transform="translate(-9.04 -7)"/><path class="cls-2" d="M729.34,139.75c-.36-4.14-.69-8.29-1.09-12.43-.35-3.52.86-5.21,4.71-5.13q14.24.27,28.46,0c3.51-.06,4.82,1.31,4.67,4.7a55,55,0,0,0,.23,7.48c.33,3.79-.27,6.72-5,6.61-3.07-.06-2.25,2.21-2.22,3.87.31,16.8.53,33.61,1.07,50.41.14,4.34-.88,6.09-5.62,6.39-13.74.85-13.72,1.09-20.49-10.54-.5-.86-.95-1.76-1.49-2.59s-.92-1.54-1.93-1.14-.66,1.41-.63,2.15c.29,10.34.3,10.33-10,10.66-7.32.24-14.64.43-21.95.8-3.39.17-4.93-1.2-5-4.56a71.51,71.51,0,0,0-.5-7.46c-.43-3.45,0-6,4.36-6,2.52,0,2.84-1.6,2.78-3.69-.3-10.48-.58-21-.7-31.45,0-2.3-.92-2.85-3-2.62-3,.33-4.15-1.1-4.25-4.05-.14-4.65-.53-9.3-.92-13.94-.26-3.11.88-4.77,4.16-4.67,6.49.19,13,.41,19.46.52,2.24,0,3.08,1.7,4.14,3.16q5.1,7,10.16,14.06a82.06,82.06,0,0,0,9.09,13.29c0-4.07,0-7.36,0-10.65,0-.44-.25-1.14-.57-1.28-2.14-.94-4.65.27-6.74-1.09C730.14,140.34,729.75,140,729.34,139.75Zm28.41,47.47-.21-15-.6-16-.19-15c0-1.33.56-2.25,2-2.17,5.13.24,6-2.74,5.27-6.94a8.66,8.66,0,0,1-.07-2.49c.54-4-.87-5.59-5.14-5.34-6,.35-12,0-17.94,0-11.61,0-11.53,0-9.8,11.37.42,2.72,1.55,3.58,4.2,3.58,1.7,0,4.22-1.1,4.85,1.94l.67,15c-.66,1.23.51,3-1.26,4.11l-5.6-7.21-10.2-14.9c-4.59-6.32-6.9-14.33-18-13.51-13.43,1-13.51-.1-11.69,13.51.21,2-1.31,5.3,2.66,4.85s4.58,1.52,4.45,4.8a63.07,63.07,0,0,0,.51,7.36q.15,8,.32,16l-.13,12.86c-7.53,2.52-8,3.31-6.61,11.63a4.1,4.1,0,0,1,.06.49c.09,1.81.94,2.72,2.84,2.63,9.31-.46,18.62-.86,27.92-1.31,1-.05,2.55-.05,2.52-1.08-.13-3.8,0-7.83-1.24-11.29-.73-2-4.15-1.13-6.44-.8-1.91-4.24-.41-8.79-1.17-13.13v-7.58l1-.1,5.41,8.68q4.36,7.51,8.74,15c1.66,3,3.5,6,4.93,9.13s3.41,3.87,6.66,3.67C758.45,199.35,758.46,199.45,757.75,187.22Zm-34.93-15.53c-.6,11-1.84,9.91,5.88,10.19C726.69,178.4,724.76,175,722.82,171.69Z" transform="translate(-9.04 -7)"/><path class="cls-2" d="M270.34,139.75c-.36-4.14-.69-8.29-1.09-12.43-.35-3.52.86-5.21,4.71-5.13q14.24.27,28.46,0c3.5-.06,4.82,1.31,4.67,4.7a55,55,0,0,0,.23,7.48c.33,3.79-.27,6.71-5,6.61-3.07-.06-2.25,2.21-2.22,3.87.31,16.81.53,33.62,1.07,50.42.14,4.34-.89,6.08-5.62,6.38-13.74.85-13.72,1.09-20.49-10.55-.5-.86-.95-1.75-1.49-2.59-.44-.67-.92-1.53-1.94-1.12s-.65,1.4-.62,2.14c.29,10.34.3,10.33-10,10.66-7.32.24-14.64.43-21.95.8-3.39.17-4.93-1.21-5-4.56a71.88,71.88,0,0,0-.5-7.47c-.43-3.44,0-6,4.36-6,2.52,0,2.84-1.6,2.78-3.69-.3-10.48-.58-21-.7-31.45,0-2.3-.92-2.85-2.95-2.62-3,.33-4.15-1.1-4.25-4.05-.14-4.65-.53-9.3-.92-13.94-.26-3.11.89-4.77,4.16-4.67,6.49.19,13,.41,19.46.52,2.24,0,3.08,1.7,4.14,3.16q5.1,7,10.16,14.06a85.41,85.41,0,0,0,9.49,13.8c-.27-4.91.25-8.76-.92-12-.78-2.16-4.68,0-6.82-1.52Zm-1.56,47.47c.26-1.86-.75-3-2.42-3-5.3.19-5.72-3.06-5.45-7.1a59,59,0,0,0-.16-5.94v-9l4.18,6,8.54,15c2.7,4.77,5.42,9.52,8.08,14.3.87,1.56,1.84,2.67,3.86,2.49,3.8-.33,7.62-.63,11.44-.78,2.3-.09,2.12-1.6,2.1-3.1-.07-5-.16-10-.23-15,.06-4.69.3-9.39-.41-14.06l-.5-18.94a54.09,54.09,0,0,0,.05-6c-.24-2.36.61-3.44,3-3.35,3.82.16,4.77-1.93,4.29-5.33a20.74,20.74,0,0,1-.13-5c.32-3.2-.86-4.38-4.17-4.26-6.31.21-12.64,0-18.95,0-11.47,0-12,.71-9.64,11.93.39,1.85,1,3.24,3.15,2.89,5.12-.83,6.34,1.8,5.79,6.23a13.13,13.13,0,0,0,.31,3v13L275,153.2l-9.58-14.12-7.76-11.53c-.84-1.25-1.69-2.32-3.5-2.33-5.8,0-11.6-.21-17.4-.37-2.13,0-3,.85-2.76,3,.42,4.12.74,8.25,1.1,12.37-.2,1.62-.1,3.32,2.07,2.89,5.26-1.06,5,2.32,5,5.73a43.85,43.85,0,0,0,.4,4.4q.21,9,.44,18c-.05,2.13-.28,4.27-.12,6.39.34,4.45.25,8.36-6,7.79-1-.1-1.08,1-1,1.83.05,2.15.22,4.31.12,6.45-.18,4,1.21,5.56,5.53,5.12,6.09-.63,12.27-.38,18.39-.73C272,197.38,270.34,198.53,268.78,187.22Zm1.06-5.18-6.46-11C262.63,181.68,262.63,181.68,269.84,182Z" transform="translate(-9.04 -7)"/><path class="cls-2" d="M857,178.52c-7.75-1.3-8-1.62-8.21-8.87-.3-11.49-.3-11.54,11.34-11,7.48.35,15,1,22.44,1.25,3.43.09,4.8,1.65,5,4.74.79,10.45,1.54,20.91,2.35,31.36.21,2.81-.63,4.38-3.77,4.46-4.32.11-8.64.45-13,.81-2.85.24-4.47-.8-4.52-4.49-8,6.87-17.05,7.54-26.56,5.76-14.55-2.72-23.76-11.31-27.6-25.48a54.89,54.89,0,0,1,.59-31c5.73-18.39,25.91-29,44.76-23.85,1.79.49,3.9,2.45,4.49-1.52.26-1.74,2.46-1.44,3.9-1.24,4.11.58,8.2,1.34,12.31,2,3.18.49,4.52,2.1,4.18,5.46-.74,7.12-1.3,14.26-1.75,21.4-.18,2.82-1.64,3.72-4.15,3.85a83.24,83.24,0,0,0-8.95.69c-4.89.8-8.58.84-10.83-5.14-2.06-5.49-9.72-5.67-14.38-1.1-7.25,7.11-7.52,22.7-.27,29.7C847.6,179.27,851.32,181.47,857,178.52ZM837.6,155.38a28.92,28.92,0,0,1,5.5-10.82c9.07-5.86,14.17-4.64,19.66,4.93a2.35,2.35,0,0,0,2.65,1.48c4-.36,7.94-.72,11.91-1,2.26-.15,3.62-.73,3.67-3.47.08-4.48.7-8.94,1-13.41.53-9.15.49-9.15-8.78-10.66-3.85-.63-8.3-2.36-7.85,4.62-16-9-39.53-.54-45.8,15-2.19,4.11-3.77,8.4-3.69,13.15-1.28,4.35-1,8.76-.43,13.16.37,4.08,1,8.1,2.77,11.83a24.9,24.9,0,0,0,8.27,12.17c12.63,11.72,32.77,11.75,43,.07l1.22.22c.55,6.81.55,6.82,7.44,6.21,1.15-.1,2.29-.27,3.43-.37,6.74-.59,6.74-.59,5.85-7.37q-.45-7-.89-14.08c-.39-4-.86-7.92-1.15-11.88-.17-2.27-1.18-3-3.46-3.1-7.13-.24-14.26-1-21.39-1.09-11-.11-9.72-2.54-9.42,10.61.06,2.8,1.28,4.07,4.34,4,1.76,0,4.45-1.78,5.41,1.54-4.62,6.45-8.75,6.88-17.25,1.8-3.24-2.94-4.77-6.88-6.22-10.85A33.76,33.76,0,0,1,837.6,155.38Z" transform="translate(-9.04 -7)"/><path class="cls-2" d="M363.71,197.29C337.88,212.71,309,196.8,307.92,167c-.46-12.79,1-25,10.53-34.72,10.27-10.45,22.84-12.82,36.76-10,1.68.35,3.75,2.36,4-1.44.07-.9,1.21-1.52,2.36-1.44.66,0,1.33,0,2,.06,16.13,1.62,16.15,1.62,15.33,17.68-.15,3-.9,6-.71,8.94.33,5-2.18,6.38-6.61,6.23a36.18,36.18,0,0,0-7,.55c-4.67.75-8.27.95-10.43-5s-10.4-5.9-15-.7c-6.46,7.25-6.74,20.82-.57,28.26,3.52,4.25,8.48,5.49,12.39,3.08-7-1.57-7.11-1.68-7.23-10.13-.14-10-.14-10.08,9.66-9.74,8,.29,15.95,1,23.93,1.28,3.27.11,4.89,1.31,5.23,4.54,1.12,10.6,2,21.21,2.38,31.86.1,2.63-.72,4.05-3.58,4.14-4.15.15-8.31.49-12.45.83C366,201.5,363.68,201.06,363.71,197.29Zm-31.85-39.07c1.19-4.56,2.62-9,5.49-12.85,8.94-6.92,14.72-5.81,20.41,4.11a2.34,2.34,0,0,0,2.65,1.49c4-.36,8-.73,11.95-1,2.3-.15,3.59-.82,3.63-3.53.06-4.15.69-8.29.91-12.45.55-10.25.48-10.07-9.87-11.79-4.12-.68-7-.75-6.49,5.16a27.89,27.89,0,0,0-16.73-4.06c-14.07.86-26.73,9.56-30.18,20.83-2.35,4.34-2.91,9.1-3.32,13.9a41.44,41.44,0,0,0,.83,15.17c.92,5.59,2.76,10.78,6.59,15.09,10.21,14.36,29.21,16.28,47.85,4.46-1.09,7.63,3.78,6.55,8.28,6,.33,0,.66-.09,1-.13,9-.92,9-.91,7.21-10.44-.08-4.69.19-9.4-1-14-.26-3.13-.55-6.26-.78-9.4-.13-1.73-.8-2.52-2.73-2.69-9.28-.79-18.57-1.08-27.87-1.31-3.2-.09-3.76,1.33-3.79,4.19-.08,10.28-.18,10.28,9.91,10.57-1.84,5.81-5.52,7.83-11.31,6.32-4.86-1.27-7.68-4.91-10.38-8.73A35.57,35.57,0,0,1,331.86,158.22Z" transform="translate(-9.04 -7)"/><path class="cls-1" d="M2119.19,151c1.58,5.1,1.48,10.38,1.55,15.62,0,2.08.47,2.69,2.72,2.75,4.64.13,9.27.81,13.9,1.26,3,.3,4.25,1.82,4,5-.67,7.28-1.14,14.59-1.5,21.91-.18,3.61-1.73,4.82-5.33,4.74-17.64-.38-35.28-.59-52.92-.76-2.78,0-3.94-1.08-3.85-3.82.13-4,.17-8,.21-12,0-2.53,1.15-4.42,3.73-4.33,3.11.11,3.31-1.38,3.33-3.87.08-10,.31-20,.58-29.95.08-2.72.23-5-3.72-4.29-2.4.44-3.67-.91-3.84-3.4q-.42-6.23-1.05-12.43c-.31-3,.69-4.81,4-4.83q26.46-.19,52.92-.42c3,0,3.62,2.18,3.81,4.3a140.91,140.91,0,0,1-.06,21.45c-.16,2.49-1.74,3.34-4.09,3.29-4.82-.09-9.65-.09-14.48-.12-1.52-1.7-1.63-3.88-1.89-6-.42-3.35-3-1.73-4.6-1.92-1.16-.14-2.94-1-3.58,1.29-1.22,4.45.26,6.65,4.83,6.67C2115.61,151.2,2117.4,151.05,2119.19,151Zm-12.31,18.25a34.72,34.72,0,0,1,3.86-.78c8-.7,7.55-.68,7.61-8.93,0-5.37-2-6.94-6.86-6.28A23.86,23.86,0,0,1,2107,153c0-3.93-.05-7.86-.07-11.79,1-.08,2-.25,3-.24,4.7,0,9.41-1.46,10.43,6.45.49,3.86,6.92,1,10.61,1.59,1.54.23,3.87.92,4.38-1.87a4.21,4.21,0,0,0,.09-.49,101.12,101.12,0,0,0,.05-19.45c-.19-1.7-.74-3-3.08-3-16.82.27-33.64.42-50.46.57-2.45,0-3.24,1.1-2.79,3.41.25,1.31.37,2.64.51,4,.86,8.14.86,8.14,8.09,9.1q.06,6.47.11,12.94l-.48,15c-.06,3-.13,6-.19,9,.35,3.64-1.11,5.92-4.94,6-2.27.06-2.31,1.35-2.12,3-.09,2.48,0,5-.33,7.44-.46,3.61.69,4.77,4.54,4.76,14.08,0,28.16.37,42.24.58,11.45.18,11.45.16,11.29-11.77.86-2.71-.45-5.44.5-8.31,2-6,1-7-5.38-7.59-.66-.06-1.33-.07-2-.13-8.25-.65-8.4-.69-10.54,7.16-1.89,6.94-7.31,3.22-11.15,3.8-4.23.65-1.66-3.28-2.61-4.93Zm13.36,1.14c-13.8.3-10.87-.89-11.25,8.67,0,1-.07,1.78,1.3,2.18,4.37,1.24,7.46-.39,8.55-4.79C2119.31,174.52,2119.73,172.6,2120.24,170.37Z" transform="translate(-9.04 -7)"/><path class="cls-1" d="M1436.19,151c1.59,5.1,1.48,10.38,1.55,15.62,0,2.09.47,2.69,2.72,2.75,4.64.13,9.27.81,13.9,1.26,3.05.3,4.25,1.82,4,5-.67,7.29-1.14,14.6-1.5,21.91-.18,3.61-1.73,4.82-5.33,4.74-17.64-.38-35.28-.59-52.92-.76-2.78,0-3.94-1.09-3.85-3.83.13-4,.17-8,.21-12,0-2.52,1.16-4.41,3.73-4.32,3.12.12,3.31-1.39,3.33-3.87.08-10,.31-20,.58-30,.08-2.71.22-5-3.73-4.28-2.4.44-3.66-.92-3.83-3.41q-.42-6.23-1-12.43c-.32-3.05.7-4.8,4-4.82q26.46-.19,52.93-.42c3,0,3.61,2.18,3.8,4.31a140.78,140.78,0,0,1-.06,21.44c-.16,2.49-1.74,3.34-4.09,3.29-4.82-.09-9.65-.09-14.48-.12-1.51-1.7-1.63-3.88-1.89-6-.42-3.35-3-1.73-4.6-1.92-1.16-.14-2.94-1-3.58,1.29-1.22,4.45.26,6.65,4.82,6.67C1432.61,151.2,1434.4,151.05,1436.19,151Zm-12,17.79c.66-.08,1.31-.16,2-.22,9.47-.85,9.21-.84,9-10.54-.08-4.14-1.69-4.82-5.26-4.84-2,0-5.17,1.86-6.19-1.95,0-.82.11-1.64.12-2.47,0-8.08,0-7.94,8.32-7.78,2.9.05,4.33.84,4.22,3.81-.14,3.67,1.69,4.51,5.2,4.46,11.41-.16,11.41,0,11.24-12,0-.33-.09-.66-.13-1,0-2.15,0-4.3.08-6.45.07-3.94-1.23-5.76-5.79-5.62-13.24.42-26.5.2-39.76.35-11.39.13-11.39.2-10.15,11.72.34,1.93-1.23,5.47,2.65,4.76,5.14-.94,5.26,1.73,5,5.37a44.19,44.19,0,0,0,.16,4.87q-.21,8-.43,16l-.27,10c-.19,3.26.59,7.17-5,6.31-1.46-.22-2.23,1.11-2,2.69-.12,3-.11,6-.4,8.92-.3,3.13.65,4.24,4,4.25,13.58,0,27.17.37,40.75.58s13.44.19,13.42-13.74a27,27,0,0,0,.61-2.89c1-10.19,1-10.19-9.22-11.27-6.89-.73-6.89-.73-8.58,5.9-1.42,5.53-2.92,6.19-11.5,5.32-4.63-.47-1.45-4.18-2.62-6.07Zm13,1.62a48.25,48.25,0,0,0-5.14,0c-2,.23-5-.76-5.77,1.38-.87,2.51-.29,5.53-.26,8.33,0,.76.69.88,1.36,1.06,4.59,1.25,7.31-.28,8.44-4.87C1436.32,174.42,1436.73,172.51,1437.22,170.39Z" transform="translate(-9.04 -7)"/><path class="cls-1" d="M1342.05,122.77c6.8.75,13.66-.15,20.44,1,19.27,3.28,26.63,23.38,13.93,38.57-2.17,2.6-2.74,4.36-1,7.28a109.18,109.18,0,0,1,4.7,9.89c1.24,2.68,2.13,5.67,6.25,4.75,1.47-.33,2.43.79,2.65,2.32.06.5.06,1,.08,1.5.85,15.39,2.88,14-12.91,14.07-5.66,0-11.32-.19-17-.24-3.89,0-6.21-1.2-5.52-5.81.48-3.27-1.08-8,.63-9.7,4.81-4.84,0-8.18-.62-12.1-.3-2-1.75-2.36-3.71-2.17-2.42.24-1.88,1.87-1.91,3.25q0,3,.12,6c0,.94-.24,2.24.94,2.58,1.68.5,3.92.18,3.9,2.81,0,4.46.76,9-.41,13.37-.37,1.42-1.85,2-3.57,1.93-8.32-.32-16.72.09-24.94-.92-7-.86-3.47-7.42-4.39-11.4-.57-2.5-1.45-6.57,3.47-6.55,3.16,0,3.81-1.38,3.77-4.27q-.24-16,0-32c0-2.74-.62-3.95-3.54-3.65s-3.65-1.48-3.55-4.07c.15-3.83.22-7.66.14-11.49-.07-3.57,1.38-5.13,5.06-5C1330.72,122.9,1336.39,122.77,1342.05,122.77Zm44.78,67.45c0-1.8,1-4.46-2.39-3.85-3.68.66-4.68-1.49-5.69-4.23a43.84,43.84,0,0,0-2.7-5.11c-1.32-4.39-4.35-8.12-5-12.76,6.26-4.4,8.28-10.84,8.66-18.05-1.35-2.92.12-6.17-1.07-9.11-2.73-6.77-8.33-9.62-15-10.86-9.74-1.79-19.59-.82-29.39-1.14-12.47-.41-12.48-.27-12.21,12.32a12.34,12.34,0,0,1,0,1.49c-.16,1.75.74,2.56,2.35,2.28,4.22-.76,5.11,1.52,4.8,5v37c-.28.87-1,1.63-1.76,1.56-6.7-.6-5.92,3.78-5.43,8,.15,1.32.34,2.64.48,4,.18,1.77,1,2.49,2.92,2.52,7.49.12,15,.42,22.46.6,1.1,0,2.81.31,2.92-1.13a91.08,91.08,0,0,0,.14-11c-.11-2.7-2.91-.67-3.87-1.87a10.39,10.39,0,0,1-1.13-2.68c0-2.64.37-5.32,0-7.9-.61-4.21,1.35-5.23,5.09-5.67,2.79-.33,3.87.59,4.67,2.94s1.94,4.88,2.92,7.31c.34,2.64,3.71,6.13-2,7.13-.27.05-.19,2.08-.27,3.19a28.32,28.32,0,0,1-.21,3.46c-.93,4.92,1.47,6.36,6,6.24,5.46-.14,10.93.21,16.39.09C1389.15,199.79,1387.79,201.16,1386.83,190.22Z" transform="translate(-9.04 -7)"/><path class="cls-2" d="M999.91,201.4c-8.49,0-17-.09-25.47,0-3.36.05-4.86-1.09-4.71-4.64.18-4.15,0-8.32-.18-12.48-.14-2.93.91-4.56,4-4.18s3.46-1.09,3.49-3.71c.09-10.15.36-20.3.7-30.45.09-2.46.14-4.25-3.18-3.8-2.21.3-3.43-1-3.49-3.23q-.19-6.48-.3-13c-.05-2.76,1.42-3.74,4.09-3.68q16.23.36,32.46.52c2.81,0,3.85,1.25,3.8,3.94a58.53,58.53,0,0,0,.25,8.48c.68,5.35-1,8.4-6.88,8-2-.14-2.44,1-2.5,2.73-.31,10.32-.73,20.63-1.05,31,0,1.32-.65,3.4,1.87,3.07,1.9-.25,4.55,1.36,5.49-1.78a51.08,51.08,0,0,0,1.84-7.23c.6-4.29,3-5.42,6.94-4.78,13.86,2.24,12.19-.57,12.62,13.3.18,5.82,0,11.66.16,17.48.11,3.28-1.26,4.41-4.44,4.36-8.49-.12-17,0-25.47,0Zm-20.06-46.17a119,119,0,0,0-.54,17c-.09,2.32-.33,4.64-.24,6.95s-.83,3.41-3.17,3c-4.37-.69-4.58,1.8-3.9,5a59.75,59.75,0,0,1-.15,7c-.56,4.22,1.19,5.28,5.24,5.21,13.28-.25,26.57-.09,39.85-.15,11.54-.05,11.54-.09,10.42-12,0-4-.3-8,0-11.94.29-4.16-1.12-5.82-5.46-6.16-8.52-.67-8.5-.93-10.65,7.09-.3,1.12-.67,2.23-.86,3.37-.35,2-1.54,2.52-3.48,2.66-8.18.59-8.17.66-8.14-7.52,0-.82-.07-1.65-.11-2.48q.15-8.5.31-17c.31-3.58.77-7.16.88-10.75.07-2.25.92-3.35,3.11-3.45,4.88.48,7.09-1.43,6.19-6.54a25.8,25.8,0,0,1-.14-6c.13-2.41-.48-3.56-3.25-3.57-9.79,0-19.57-.33-29.35-.49-1.11,0-2.87-.45-3.13.79a31.1,31.1,0,0,0,.19,13.31c.75,3.2,4.4.57,6.49,1.67Z" transform="translate(-9.04 -7)"/><path class="cls-1" d="M1570.33,189.43c.2,2.68.39,5.36.59,8,.18,2.4-.67,3.75-3.32,3.83-9.15.27-18.29.58-27.43,1-3,.13-4.3-1.09-4.47-4-.22-3.65-.42-7.3-.83-10.93-.39-3.37.66-5.61,4.25-5.82,3-.18,3.23-2.34,3.61-4.45,3-16.66,7.13-33.09,11.08-49.55.94-3.88,2.61-5.69,6.77-5.45,4.81.27,9.63.46,14.44.69,4.11.19,5.68,2.13,6.89,5.65,5.57,16.15,11.37,32.21,17,48.33.91,2.58,1.48,5.06,5.19,4.46,2.05-.34,2.89,1.09,2.88,3.09,0,4.49-.08,9,0,13.48.06,2.59-1.13,3.49-3.59,3.55-8.15.22-16.31.34-24.44.93-4.58.33-6.37-1.57-6.61-5.82-.13-2.38-.52-4.75-.79-7.12Zm11.76-52.25c-2.21-5.83-1.94-13-11.85-12.78-16,.26-12.58-2.14-16,11.83q-1.89,7.94-3.76,15.87-1.71,8.07-3.41,16.13-1.63,7.35-3.26,14.7c-7.06,1.37-7.09,1.37-6.66,8.37.11,1.82.6,3.62.61,5.44,0,2.88,1.39,3.57,4.07,3.41,7.46-.44,14.94-1,22.39-.82,4.31.08,5.1-1.63,4.49-5.22a15.39,15.39,0,0,1-.43-4.45c.75-5.5-2-7.3-7-7.09-.4-2.33-.34-5.63,1.65-6a29.53,29.53,0,0,1,12.76,0c2.65.69,2.78,4.76,3.2,7.65-4.2-.52-5.68,1.33-4.93,5.41a46.08,46.08,0,0,1,.78,6.93c.1,2.77,1.33,3.79,4.07,3.61,4.48-.29,9-.11,13.47-.58,4.17-.45,10,1.75,12.09-1.64,2-3.09.39-8.39.37-12.72.07-.8.18-2-.9-1.81-5.52,1.14-6.31-2.69-7.42-6.56-.85-3-2.19-5.78-3.32-8.67a112.24,112.24,0,0,0-6.07-17.08A75.18,75.18,0,0,0,1582.09,137.18Zm-12.75,41.1a4,4,0,0,0-1,0c-1.45.38-3.9-1.08-4.24.94-.41,2.42,2.25,1.55,3.63,1.93a3.6,3.6,0,0,1,2.18,1.77c2.06,3.39,2.77-1.38,4.59-.77,1.3.44,1.41-.7,1.07-1.85-.51-1.73-1.6-2.25-3.3-2.06A24.16,24.16,0,0,1,1569.34,178.28Z" transform="translate(-9.04 -7)"/><path class="cls-1" d="M1062,123.06c8.49,0,17,.07,25.47,0,3.06,0,4.6.87,4.66,4.21.1,6.15.46,12.31.82,18.46.15,2.66-1,4.06-3.55,4.44s-5.28.71-7.88,1.27c-4.71,1-8.26.68-8.54-5.44-.16-3.4-3.08-1.37-4.71-1.78-2.1-.53-2.27.88-2.37,2.61-.42,7.13-.5,7.34,6.57,8.17,3.53.41,4.57,2,4.26,5.21-.18,2-.12,4-.21,6-.35,7.61-.35,7.83-7.78,8-3.32.09-2.78,1.93-2.77,3.88s-.61,4.74,3,4.1c5.9-1.06,7.41,2.17,7.82,7.22,1,12.7,4.07,11.93-10.12,11.9-9.83,0-19.66-.16-29.48.08-4,.1-5.45-1.42-5.2-5.23a35.12,35.12,0,0,0-.09-6c-.48-4.51.48-7.63,5.95-7.2,2.76.22,3.11-1.47,3.08-3.8-.14-10.83-.21-21.65-.1-32.48,0-2.81-.87-4-3.65-3.72-4.55.52-5.88-1.71-5.39-5.91.38-3.29.41-6.63.57-10,.17-3.65,1.78-5.12,5.7-5,8,.32,16,.09,24,.09ZM1074,168.23c.13-1.15.31-2.29.37-3.44.38-7,.4-7.45-6.45-8-4.26-.35-4-2.79-4.12-5.57a18.12,18.12,0,0,1,.18-4c.49-1.84-1.87-5.54,2.35-5.09,3.32.36,8.91-3.21,9.27,4.18.09,1.61.27,3.09,2.79,3.2,11.19.52,13.41-1.74,12.05-12.83a2,2,0,0,0-.18-.46,43.46,43.46,0,0,1,0-5.47c.49-4.48-1.3-5.78-5.81-5.76-13,.08-25.94-.44-38.91-.64-11.83-.18-11.83-.12-11.31,11.86-.66,2.89-.24,4.84,3.45,4.46,4.11-.42,6.08,1.25,5.38,5.63a26,26,0,0,0,.14,4.9l0,17-.13,16c-9.6,2.34-9.49,2.33-8.91,11.38.19,2.8,1.13,3.65,3.9,3.61,11-.14,22-.25,33,0,4.1.1,4.8-1,4.17-5-1.53-9.72-1.28-9.76-10.93-10.16-.11-1.48-.28-3-.3-4.44-.08-7.14-.07-7.34,7.09-7.42C1074.38,172.23,1074.38,170.6,1074,168.23Z" transform="translate(-9.04 -7)"/><path class="cls-2" d="M668.51,200.28c-5,0-10-.11-15,0-4.29.12-6.07-1.87-5.87-6a67.71,67.71,0,0,0,0-7c-.22-3.8,1-6.19,5.28-5.85,2.38.19,2.57-1.13,2.48-3.1-.47-10.8-.88-21.6-1.15-32.41-.07-2.58-.52-4-3.53-3.79-2.46.14-3.48-1.62-3.41-3.94.14-4.15.35-8.31.52-12.46.09-2.42,1.58-3,3.68-3q15.72-.22,31.43-.57c2.8-.07,3.92,1.19,3.89,3.88,0,2.33.1,4.66.18,7,.26,7.36.3,7.53-6.6,9-2.28.47-2.5,1.41-2.43,3.29.4,11,.87,21.94,1,32.92,0,3.21,1.75,3.14,3.78,2.93,4.36-.46,5.87,1.54,6,5.74.33,16.47,1.53,12.9-12.23,13.49-2.66.11-5.33,0-8,0Zm8.2-27.06a71.15,71.15,0,0,0-.67-14q-.16-8-.31-16c-1.1-1.85-1-2.68,1.56-3.09,7.81-1.29,7.79-1.43,7.57-9.23a18.88,18.88,0,0,1-.07-2.49c.29-3.14-.84-4.37-4.23-4.16-6.79.41-13.61.33-20.42.52-10.55.29-10.47.31-10.56,11.15,0,2.81.5,4.68,3.74,4.19,2.59-.39,3,1.23,3.36,3.13q.23,8,.44,16c-.1,4.68-.29,9.37.59,14a45.35,45.35,0,0,0,0,5.47c.4,3.18-.1,5.11-4,4.71-1.59-.17-3.87,0-3.61,2.81-.1,1.82-.07,3.65-.3,5.44-.64,4.9,1.22,6.89,6.33,6.63,6.77-.34,13.58,0,20.36-.06,11.52-.09,11.52-.12,9.56-12,.45-2.58-2.36-2.81-3.11-2.71-6.31.87-6.36-3-6.06-7.37A22.15,22.15,0,0,0,676.71,173.22Z" transform="translate(-9.04 -7)"/><path class="cls-2" d="M1976.69,201.27c-5.16,0-10.32-.05-15.47,0-3.68.05-5.62-1.49-5.51-5.33.08-2.66.12-5.33,0-8-.19-3.67,1.12-5.8,5.09-5.52,2.17.15,2.79-.74,2.69-2.93q-.77-16.46-1.2-32.91c-.06-2.43-.61-3.61-3.33-3.46s-3.69-1.76-3.59-4.27c.15-4,.37-8,.5-12,.08-2.33,1.32-3.14,3.52-3.17,10.48-.15,21-.31,31.43-.59,3.1-.08,4.16,1.34,4.08,4.21-.06,2.16.09,4.33.17,6.49.24,7.29.29,7.45-6.92,9.19-2.11.51-2.15,1.46-2.1,3.06.37,11.14.81,22.28,1,33.42,0,2.91,1.73,2.8,3.56,2.6,4.62-.5,6.09,1.67,6.16,6.07.27,16,1.47,12.61-12.08,13.17-2.65.11-5.32,0-8,0Zm7.63-36.16-.57-18.89c-1.29-4.12.49-5.67,4.5-5.49.8,0,1.62-.43,2.44-.43,2.53,0,2.62-1.73,2.25-3.4-.86-3.82,1.7-8.21-1.9-11.53-.27-.25-1-.06-1.46-.05l-28.88.64c-1.36,0-2.7,0-2.74,2-.06,3.65-.23,7.3-.3,10.95,0,1.37.77,2.38,2.13,2.14,4.44-.82,4.7,2.16,5,5.21q.23,9.5.43,19l.63,19c-8.09,1-7.84,1-8.11,8.43-.18,4.83,1.15,6.91,6.36,6.68,8.62-.37,17.27-.33,25.89,0,4.16.14,5-1.47,4.82-5.2-.34-9.57-.2-9.58-9.61-9.94Z" transform="translate(-9.04 -7)"/><path class="cls-2" d="M789.48,200.29c-4.82,0-9.65-.16-14.47.05s-6.65-2-6.36-6.6a51.89,51.89,0,0,0,0-6.48c-.23-3.83,1-6.16,5.3-5.82,2.42.19,2.54-1.19,2.46-3.13-.46-10.8-.89-21.6-1.15-32.41-.06-2.61-.59-3.93-3.55-3.77-2.48.14-3.46-1.65-3.39-4,.14-4.15.35-8.31.52-12.46.1-2.43,1.63-2.94,3.71-3q15.7-.22,31.43-.57c2.81-.06,3.89,1.23,3.86,3.91,0,2.33.11,4.66.19,7,.25,7.31.29,7.49-6.64,8.93-2.3.48-2.46,1.47-2.4,3.31.4,11,.84,21.95,1,32.92,0,3.14,1.73,3.14,3.78,2.91,4.4-.49,5.85,1.6,5.93,5.77.34,16.43,1.54,12.87-12.25,13.46-2.66.11-5.33,0-8,0Zm-11-29.09c-.79,4.13,1.48,8.41-.57,12.48-7.12-.12-7.12-.12-7.14,6.83a22.8,22.8,0,0,1,0,2.48c-.43,3.87,1.28,5.33,5.14,5.24,7.45-.16,14.91,0,22.36,0,10.06-.07,10.12-.11,9-10.39-.17-1.63,1-4.41-2.44-4.35-6.91-.47-6.9-.47-7-7.35,0-1.64-.15-3.28-.24-4.92q-.37-8.49-.76-17c0-3.44.21-6.89-.08-10.31-.22-2.72.77-3.92,3.34-4.09,5,.26,6.8-2,5.79-6.87a16.44,16.44,0,0,1-.14-4.49c.22-3.1-.76-4.43-4.21-4.22-6.65.42-13.33.33-20,.52-11.07.31-11,.33-11,11.27,0,3.42,1.16,4.58,4.37,4,2.39-.06,2.41,1.61,2.49,3.33.16,3.63.41,7.25.63,10.87A111.94,111.94,0,0,0,778.53,171.2Z" transform="translate(-9.04 -7)"/><path class="cls-1" d="M968,161.85a39.68,39.68,0,0,1-1.05,10.77C964,186.19,957,197,943.1,200.69c-14.43,3.79-28.46,2.5-39.65-9.23-4.63-4.85-7.15-10.79-8.4-17.23a69.3,69.3,0,0,1,0-26.77c3.1-15.83,15.45-26.29,31.88-27.2C952.89,118.83,968,133.93,968,161.85Zm-70.27-14.17c-1.93,5.72-2,11.61-1.46,17.54.37,5.54.93,11,3.71,16,4.38,11.57,15.06,18.48,29.42,18.91,14.58.43,25.8-5,32.14-18.76a33.69,33.69,0,0,0,3.7-14.14,35.11,35.11,0,0,0-.43-16c-.77-6-2.73-11.52-6.78-16.16-.31-1.48-1.9-1.76-2.65-2.82-10-14-42.84-13.75-53,3.83A23.56,23.56,0,0,0,897.71,147.68Z" transform="translate(-9.04 -7)"/><path class="cls-1" d="M156.84,162.72c0-12.73,1.56-23,9-31.33,9.35-10.46,27.32-14.56,41.91-9.12,15.16,5.67,21.7,17.79,23,33.15.76,8.84,0,17.58-3.58,25.91-6.67,15.51-20.58,22.93-39.08,20.76-16.4-1.93-27.6-12.69-30.32-29A61.6,61.6,0,0,1,156.84,162.72Zm70.36-14a25.9,25.9,0,0,0-6.11-13.55c-.38-1.63-2-2.09-3-3.19-12.65-14.38-40.95-12.59-52.08,3.26a25.7,25.7,0,0,0-5.63,12.9,46.2,46.2,0,0,0-1.23,15.09c.14,6.24.83,12.36,3.8,18,4.38,11.57,15.06,18.48,29.42,18.91,14.59.43,25.8-5,32.14-18.76a38.79,38.79,0,0,0,3.93-15A39.07,39.07,0,0,0,227.2,148.71Z" transform="translate(-9.04 -7)"/><path class="cls-3" d="M616.8,64.23q0,9,0,18H466.86q-.12-9-.25-18Z" transform="translate(-9.04 -7)"/><path class="cls-4" d="M616.8,64.23H466.61c-.84-8.07-.84-8.07-8.07-8-9.57.1-9.57.1-9.67-10q36.64,0,73.28,0A27.22,27.22,0,0,0,530,45.21c3.55,4.15,5.54,9.27,8.75,14.2,2.7-3.65,5.29-7.18,7.89-10.7,1.5,2.34,3.88,1.49,5.91,1.49q41.63.07,83.25,0c.8,2.69-.75,3.6-3,3.84-3.6.38-7.22,1-10.81.9-4.13-.18-5.64,1.29-5,5.33A20.81,20.81,0,0,1,616.8,64.23Z" transform="translate(-9.04 -7)"/><path class="cls-5" d="M530,45.21a27.22,27.22,0,0,1-7.84,1.06q-36.63-.09-73.28,0c-1.59-10.09-1-20.25-1-30.39,0-2.27,1.21-2.78,3.1-2.89,18.81-1.08,37.62-.84,56.43,0a4.45,4.45,0,0,1,4,2.48C517.12,25.63,524.67,34.73,530,45.21Z" transform="translate(-9.04 -7)"/><path class="cls-6" d="M638.4,171.09c.52,7.95,1,15.9,1.59,23.83.19,2.58-.62,3.46-3.3,3.43-25.91-.27-51.83.44-77.73-1.14-4.5-.27-6.37-1.78-6-6.57.44-6.44.16-12.94.19-19.41Z" transform="translate(-9.04 -7)"/><path class="cls-7" d="M466.86,82.23H616.78q0,9.49,0,19l-45.08,0V86.41l-5.88,7.26c-15.44-1-30.89-.17-46.34-.43a3.47,3.47,0,0,0-3.61,2.1l-6-8.2V97.23H467Z" transform="translate(-9.04 -7)"/><path class="cls-8" d="M511.46,147.09a6.6,6.6,0,0,1,.21,1c.62,10,.61,10,10.54,11,8.17.81,8.19.8,8.56,9.23.1,2.32,0,4.64.06,6.95h-82a12.19,12.19,0,0,1-.34-1.45c-1.87-15.47-1.87-15.61,13.34-15.77,4.08,0,5.74-1.2,5.16-5.35a33,33,0,0,1,.09-5.44Z" transform="translate(-9.04 -7)"/><path class="cls-6" d="M448.87,175.23h82c.36,6.14.62,12.29,1.11,18.42.24,2.9-.82,3.63-3.64,3.56q-37.66-1.06-75.33-1.87c-2,0-3-.4-3.13-2.69C449.48,186.84,448.58,181.07,448.87,175.23Z" transform="translate(-9.04 -7)"/><path class="cls-5" d="M556.86,34.08c4-7,9.17-13.3,13.81-19.92,1.24-1.77,3.06-1.81,4.89-1.8,18.61,0,37.21.14,55.82.12,3.1,0,4.45,1,4.33,4.32-.21,6.13,0,12.28,0,18.43q-36.63,0-73.27,0C560.56,35.2,558.41,36,556.86,34.08Z" transform="translate(-9.04 -7)"/><path class="cls-8" d="M638.4,171.09l-85.29.14c-.47-10.83-.47-10.83,9.94-11,7.92-.12,7.91-.12,8-8.06,0-1.65.12-3.31.18-5h45.92c0,.16.1.32.14.48,1,3.62-1.3,8.47,1.75,10.84,2.83,2.21,7.39.7,11.17,1.12a10.26,10.26,0,0,0,2,.15c4.19-.3,6.57,1.07,6,5.82A29.5,29.5,0,0,0,638.4,171.09Z" transform="translate(-9.04 -7)"/><path class="cls-9" d="M511.46,147.09l-44.34.13q0-15.5-.07-31h43.54Z" transform="translate(-9.04 -7)"/><path class="cls-10" d="M556.86,34.08c1.55,1.9,3.7,1.12,5.59,1.12q36.63.07,73.27,0l.07,15q-41.62,0-83.25,0c-2,0-4.41.85-5.91-1.49Z" transform="translate(-9.04 -7)"/><path class="cls-9" d="M617.12,147.23H571.2l.18-24h45.47Z" transform="translate(-9.04 -7)"/><path class="cls-11" d="M616.85,123.23H571.38a185.47,185.47,0,0,1,.34-22l45.08,0Q616.81,112.23,616.85,123.23Z" transform="translate(-9.04 -7)"/><path class="cls-12" d="M510.59,116.22H467.05q0-9.5-.08-19h42.91Q510.23,106.73,510.59,116.22Z" transform="translate(-9.04 -7)"/><path class="cls-12" d="M515.89,95.34a3.47,3.47,0,0,1,3.61-2.1c15.45.26,30.9-.55,46.34.43l-6.42,10.78c-12.55-2.13-25.11-1.74-37.67-.15Z" transform="translate(-9.04 -7)"/><path class="cls-11" d="M521.75,104.3c12.56-1.59,25.12-2,37.67.15-3.32,7.52-8.73,11.69-17.3,10.81a2.36,2.36,0,0,0-1,.06C530.52,119,525.36,113,521.75,104.3Z" transform="translate(-9.04 -7)"/><path class="cls-9" d="M1283.24,123.71a233.54,233.54,0,0,1,7.91,22.46,27.94,27.94,0,0,1-8.35,1.1c-13-.08-26,0-39,0-1.06-4.08-3.4-5.47-7.83-5.2a225.28,225.28,0,0,1-24,0c-4.29-.19-6.52.93-6.61,5.48a22,22,0,0,1-1.16,4.79l-41.33-.12a252.39,252.39,0,0,1,5.18-27,63.55,63.55,0,0,0,7.84,1q50.05.11,100.11,0C1278.72,126.22,1281.36,126,1283.24,123.71Z" transform="translate(-9.04 -7)"/><path class="cls-11" d="M1283.24,123.71c-1.88,2.31-4.52,2.51-7.19,2.51q-50.05,0-100.11,0a63.55,63.55,0,0,1-7.84-1,243.57,243.57,0,0,1,5.53-25.49c1.14,2.8,3.57,2.5,5.91,2.5H1213c-.56,2.55-1.11,5.11-1.7,7.81,6,.54,11.79-1,17.56-.64,4.83.27,5.8-1.34,3.75-5.44,1.2-2.3,3.39-1.7,5.28-1.7,10.76-.05,21.53,0,32.29-.05,1.73,0,3.71.6,5-1.29C1278.76,108.18,1280.12,116.26,1283.24,123.71Z" transform="translate(-9.04 -7)"/><path class="cls-4" d="M1256.91,49.78a242.94,242.94,0,0,1,9.3,25.91c-1.29,2.23-3.48,1.5-5.35,1.52-12.85.13-25.71.18-38.56.26-.57-1.64-1.3-1.13-2.06-.14-8.8,0-17.61,0-26.41-.13-4.95-.08-10,.76-14.81-1q3.15-13.6,6.31-27.22c2.11,1.19,4.41,1.26,6.76,1.25,14.14,0,28.27.06,42.41,0C1242,50.14,1249.45,50.76,1256.91,49.78Z" transform="translate(-9.04 -7)"/><path class="cls-5" d="M1256.91,49.78c-7.46,1-14.94.36-22.41.42-14.14.11-28.27,0-42.41,0-2.35,0-4.65-.06-6.76-1.25,2.19-8.85,4.85-17.61,6.39-26.57,1-5.8,4-7.07,9.08-7.18,10.82-.23,21.59,1.45,32.33,1.2s15.59,4.58,17.69,14.47C1252.19,37.35,1254.84,43.5,1256.91,49.78Z" transform="translate(-9.04 -7)"/><path class="cls-8" d="M1162.92,152.22l41.33.12c-.82,6.59-.82,6.59,5.71,7.59,3.54.55,8.06-.4,10.35,2.06s.67,6.62.59,10c-.05,2.1,1.71,4,.92,6.18l-77.16,0c-2.11-13.85-2.21-14.48,11-16.66C1162.26,160.51,1161.45,156,1162.92,152.22Z" transform="translate(-9.04 -7)"/><path class="cls-6" d="M1144.66,178.24l77.16,0c.39,5.48.71,11,1.17,16.43.22,2.61-.78,3.41-3.36,3.51-22.81.9-45.61,1.85-68.4,3-3.37.17-4.4-1.27-4.88-4.06A99.41,99.41,0,0,1,1144.66,178.24Z" transform="translate(-9.04 -7)"/><path class="cls-13" d="M1236.15,184.22c-.37-4.79-.57-9.6-1.15-14.37s1.2-6.83,6-6.44c1.64.13,3.3,0,5,0,1.21,3.34,4.1,2.76,6.66,2.77q29.57,0,59.12,0,0,9,0,18Z" transform="translate(-9.04 -7)"/><path class="cls-6" d="M1236.15,184.22h75.59c0,4.65,1.68,10.34-.41,13.66-2.3,3.65-8.53,1.55-13,1.78-18.4.94-36.82,1.81-55.26,1.68-3.23,0-4.92-1-5.25-4.32C1237.39,192.74,1236.72,188.49,1236.15,184.22Z" transform="translate(-9.04 -7)"/><path class="cls-7" d="M1222.3,77.47c12.85-.08,25.71-.13,38.56-.26,1.87,0,4.06.71,5.35-1.52,3.54,8.21,6.14,16.75,8.92,25.23-1.29,1.89-3.27,1.28-5,1.29-10.76.05-21.53,0-32.29.05-1.89,0-4.08-.6-5.28,1.7Z" transform="translate(-9.04 -7)"/><path class="cls-7" d="M1179,76.22c4.84,1.74,9.86.9,14.81,1,8.8.14,17.61.1,26.41.13a257,257,0,0,1-7.29,24.9h-33.41c-2.34,0-4.77.3-5.91-2.5A210.18,210.18,0,0,1,1179,76.22Z" transform="translate(-9.04 -7)"/><path class="cls-14" d="M1311.73,166.22q-29.55,0-59.12,0c-2.56,0-5.45.57-6.66-2.77,3-.08,2.18-2,1.67-3.66-1.26-4.19-2.54-8.37-3.81-12.56,13,0,26,0,39,0a27.94,27.94,0,0,0,8.35-1.1c.47,1,1,2,1.41,3.1,1.37,3.84,1.65,8.86,4.31,11.24s7.89.8,12,.71C1313.35,161.12,1311.57,164.11,1311.73,166.22Z" transform="translate(-9.04 -7)"/><path class="cls-8" d="M147.75,155.22l.12,24h-136c-.18-4.95-.31-9.91-.58-14.86-.15-2.75,1-3.94,3.73-4,3,0,6-.4,8.93-.19,4.55.32,6.38-1.57,5.83-6a14.86,14.86,0,0,1,.24-2.95H76.82c.42,8.11.42,8.16,8.66,8,5-.11,9.92-.56,14.89-.54,2.62,0,3.84-1.26,4.63-3.42Z" transform="translate(-9.04 -7)"/><path class="cls-6" d="M11.88,179.22h136c0,5.66,0,11.33.17,17,.07,2.49-1,3-3.27,3-42.82.14-85.64,2-128.46.15-3.49-.15-4.59-1.26-4.43-4.68C12.12,189.55,11.9,184.38,11.88,179.22Z" transform="translate(-9.04 -7)"/><path class="cls-10" d="M102.23,34.23c.89,6.1.45,12.22.51,18.34,0,2.72-1.23,3.62-3.85,3.94-6,.72-12,1.79-18,2.72H32.1c0-2.12-1-3-3.07-2.84-2.82.18-5.71-.1-8.44.47-4.14.86-5.2-1.07-5.34-4.63-.24-6-.61-11.92-.92-17.88Z" transform="translate(-9.04 -7)"/><path class="cls-9" d="M76.82,151.22H30c-.07-11.34-.3-22.67.51-34H77.73Q77.28,134.22,76.82,151.22Z" transform="translate(-9.04 -7)"/><path class="cls-5" d="M102.23,34.23l-87.9.12c-.11-4.33,0-8.67-.4-13s1.13-5.6,5.33-5.49c13.65.36,27.32.34,41,.63,12.49.25,25,.77,37.47,1,3,.07,4.54.76,4.33,4.22C101.8,25.9,102.14,30.08,102.23,34.23Z" transform="translate(-9.04 -7)"/><path class="cls-3" d="M32.1,59.23H80.86q-1.06,14.49-2.11,29H31.11A280.44,280.44,0,0,1,32.1,59.23Z" transform="translate(-9.04 -7)"/><path class="cls-12" d="M31.11,88.22H78.75l-1,29H30.54Z" transform="translate(-9.04 -7)"/><path class="cls-9" d="M147.75,155.22H105c2.34-9.16,4.74-18.31,7-27.5.57-2.35,1.82-2.8,3.93-2.62,9.46.78,18.8,2.34,28.18,3.73,2.55.37,3.24,1.61,3.27,3.94C147.41,140.25,147.6,147.73,147.75,155.22Z" transform="translate(-9.04 -7)"/><path class="cls-13" d="M1951.25,185.23c1.78,14.93,1.78,15-12.81,15-12.79.06-25.58-.06-38.37.07-3.15,0-4.48-.84-4.22-4.18.29-3.62.11-7.29.14-10.93Z" transform="translate(-9.04 -7)"/><path class="cls-9" d="M1951.25,185.23H1896c0-3.34,2.58-1.89,4-1.89,2.41,0,3.15-.86,3.14-3.19,0-4.31.24-8.61.37-12.92h19.28c0,4.15.07,8.31-.08,12.46-.08,2.4.42,3.53,3.23,3.61,7.78.22,7.74.36,9.86-7.49.61-2.26.16-5.88,2.74-6.25,3.85-.54,7.92.37,11.73,1.6,1.13.37.94,1.67,1,2.62C1951.22,177.59,1951.22,181.41,1951.25,185.23Z" transform="translate(-9.04 -7)"/><path class="cls-4" d="M1867.31,146.21c.27-4.31-1-7-6.06-6.08-1.84.34-2.74-.75-2.92-2.51-.06-.5-.18-1-.21-1.48-.65-13.34-2.63-10.48,9.33-10.78,5.64-.15,11.31.29,16.92-.09,4.92-.33,7.56.91,6.66,6.35a9.56,9.56,0,0,0,.08,3c.55,3.42-.51,5.32-4.3,5.34-5.07,0-2,4.19-3,6.29Z" transform="translate(-9.04 -7)"/><path class="cls-9" d="M1865.94,161.23l1.93-.15c.31,2.37,2.1,2.16,3.77,2.16h12.45c.86,5.63.69,11.31.59,17h-27.52l-9.26-15.94c1.16-2.52,3.46-1.89,5.52-2.06C1857.59,161.88,1861.9,163.19,1865.94,161.23Z" transform="translate(-9.04 -7)"/><path class="cls-4" d="M1828.2,146.21c-.13-1.29-.63-2.34-2.14-2-5,1.07-5.4-2-5.23-5.69a8.38,8.38,0,0,0-.07-1c-.94-11.88-.93-11.35,11.24-11.68,7.7-.2,12.85,2,16.16,9,1.54,3.25,3.89,6.12,5.87,9.17-2.07,2-4.7,2.19-7.38,2.18Z" transform="translate(-9.04 -7)"/><path class="cls-7" d="M1828.2,146.21l18.45,0c2.68,0,5.31-.14,7.38-2.18l11.91,17.18c-4,2-8.35.65-12.52,1-2.06.17-4.36-.46-5.52,2.06l-.46-.06-.47.1c-.32-2.4-2.16-2.07-3.78-2.08-4.77,0-9.55,0-14.33,0Z" transform="translate(-9.04 -7)"/><path class="cls-4" d="M1903.93,141.22c-2.08-1.1-5.76,1.56-6.49-1.69a31.13,31.13,0,0,1-.15-13.35c.22-1,1.73-.74,2.7-.73,10,.18,20,.45,30,.52,2.5,0,3.11,1.06,3,3.29-.13,3.32-.07,6.65-.09,10-8.22,0-16.43,0-24.65,0C1906.6,139.28,1904.41,138.49,1903.93,141.22Z" transform="translate(-9.04 -7)"/><path class="cls-13" d="M1847.24,184.1a21.69,21.69,0,0,0,4.35.94c2.55,0,3.2,1.17,3.47,3.61,1.08,10.09,1.19,10.08-9,10.44-6.45.23-12.93.21-19.37.71-3.38.27-4.26-1-4.54-4.07-.77-8.26-.87-8.25,6.69-10.55C1835,184.77,1841.21,186.39,1847.24,184.1Z" transform="translate(-9.04 -7)"/><path class="cls-13" d="M1857.16,180.22h27.52c.09,5.62.1,11.24.31,16.86.08,2.29-.61,3.46-3,3.21a1.67,1.67,0,0,0-.5,0c-9.31,2.71-15.26-.68-18.63-9.7C1861.47,187,1859.08,183.67,1857.16,180.22Z" transform="translate(-9.04 -7)"/><path class="cls-9" d="M1847.24,184.1c-6,2.29-12.29.67-18.42,1.08q0-11.48,0-23c4.78,0,9.56,0,14.33,0,1.62,0,3.46-.32,3.78,2.08Z" transform="translate(-9.04 -7)"/><path class="cls-12" d="M1922.73,167.22h-19.28q.25-7.5.49-15h19.24Z" transform="translate(-9.04 -7)"/><path class="cls-15" d="M1923.18,152.23h-19.24q0-5.5,0-11c.48-2.73,2.67-1.94,4.31-2,8.22-.06,16.43,0,24.65,0,.5,2.8-1.91,2.56-3.22,2.53-4.67-.08-6.56,1.92-6,6.56A15.22,15.22,0,0,1,1923.18,152.23Z" transform="translate(-9.04 -7)"/><path class="cls-12" d="M1884.09,163.24h-12.45c-1.67,0-3.46.21-3.77-2.16q-.28-7.44-.56-14.87h16.47Q1883.93,154.72,1884.09,163.24Z" transform="translate(-9.04 -7)"/><path class="cls-10" d="M1790.74,34.9c6.62,6.13,10.65,14,14,22.13.7,1.72,2.62,3,2.18,5.2-17.38,0-34.75,0-52.12,0a27,27,0,0,0-7.81,1c-3.4-2-6.59-4.34-10.61-5.22-9.42-2.07-18.1-.2-26.36,4.4-1.1-2.65-3.46-2.16-5.57-2.16H1648A61.91,61.91,0,0,1,1663.8,34c1.48,2,3.66,1.24,5.55,1.24q58,.07,115.92,0C1787.09,35.22,1788.91,35,1790.74,34.9Z" transform="translate(-9.04 -7)"/><path class="cls-14" d="M1654.32,161.44a72.68,72.68,0,0,1-8-19.08c19,0,38.08-.06,57.11-.16,1.89,0,4,.79,5.58-1.09,14.77,10.76,35.17,10.81,45.89-7.91l55.37.1a86.67,86.67,0,0,1-11.82,29.95c-1.3-2.94-4-2-6.13-2q-44-.08-88,0C1687.64,161.26,1671,161.37,1654.32,161.44Z" transform="translate(-9.04 -7)"/><path class="cls-13" d="M1654.32,161.44c16.66-.07,33.32-.18,50-.2q44,0,88,0c2.17,0,4.83-1,6.13,2a62.58,62.58,0,0,1-16.28,19.07,9.79,9.79,0,0,0-4.79-1.11q-49.69,0-99.39,0c-1.82,0-3.83-.3-4.14,2.36A62.68,62.68,0,0,1,1654.32,161.44Z" transform="translate(-9.04 -7)"/><path class="cls-5" d="M1790.74,34.9c-1.83.11-3.65.32-5.47.32q-58,0-115.92,0c-1.89,0-4.07.79-5.55-1.24,10.82-12.49,25.1-18.72,40.81-22,22.17-4.63,44-4.1,64.7,6.29C1777.51,22.37,1784.33,28.41,1790.74,34.9Z" transform="translate(-9.04 -7)"/><path class="cls-11" d="M1810.23,133.3l-55.37-.1c4.82-11.55,5.5-23.69,5.16-36l53.6-.19A115.12,115.12,0,0,1,1810.23,133.3Z" transform="translate(-9.04 -7)"/><path class="cls-15" d="M1813.62,97l-53.6.19c-1.58-12.4-3.72-24.58-13.06-34a27,27,0,0,1,7.81-1c17.37.06,34.74,0,52.12,0C1811.6,73.35,1813.06,85.1,1813.62,97Z" transform="translate(-9.04 -7)"/><path class="cls-6" d="M1673.81,183.6c.31-2.66,2.32-2.36,4.14-2.36q49.69,0,99.39,0a9.79,9.79,0,0,1,4.79,1.11c-12,10.75-26.34,15.78-42.09,17.25-19.39,1.82-38.13-.6-55.79-9.29A41.52,41.52,0,0,1,1673.81,183.6Z" transform="translate(-9.04 -7)"/><path class="cls-3" d="M1648,60.23h56.45c2.11,0,4.47-.49,5.57,2.16-3.53,3.29-7.07,6.62-9,11.14-1.83,4.17-3.43,8.45-5.13,12.68-17.89-.51-35.82,1.16-53.68-1A78.61,78.61,0,0,1,1648,60.23Z" transform="translate(-9.04 -7)"/><path class="cls-12" d="M1642.13,85.22c17.86,2.16,35.79.49,53.68,1q-.52,10-1.07,20h-53.56A101.08,101.08,0,0,1,1642.13,85.22Z" transform="translate(-9.04 -7)"/><path class="cls-11" d="M1641.18,106.22h53.56c.46,6.43.92,12.86,3.14,19l-55.27.12A110.36,110.36,0,0,1,1641.18,106.22Z" transform="translate(-9.04 -7)"/><path class="cls-9" d="M1642.61,125.35l55.27-.12A51.06,51.06,0,0,0,1709,141.11c-1.55,1.88-3.69,1.08-5.58,1.09-19,.1-38.07.12-57.11.16A93.08,93.08,0,0,1,1642.61,125.35Z" transform="translate(-9.04 -7)"/><path class="cls-11" d="M2034.83,174.26q-3.06-4.86-6.13-9.72l-.92.17v13.5H2010l-.21-18,36.34-.09c1.6,1.75,2.42,1.2,2.72-.91H2065l.57,15Z" transform="translate(-9.04 -7)"/><path class="cls-13" d="M2010,178.21h17.75c0,3.88.33,7.43,5.7,7,2-.16,2.37,1.16,2.49,2.87.74,11.18,4,10.28-9.35,11-6.29.35-12.6.26-18.89.65-3.24.2-4.57-1-4.58-4.14,0-2.15-.25-4.3-.35-6.46,0-1.15-.19-2.79,1.38-2.68C2010.83,186.92,2009.79,182.16,2010,178.21Z" transform="translate(-9.04 -7)"/><path class="cls-4" d="M2009.2,146.21c-.13-1.29-.64-2.34-2.15-2-5,1.08-5.38-2.08-5.22-5.71,0-.17,0-.33,0-.5-.92-12.34-.9-11.83,11.28-12.14,7.51-.2,12.54,1.92,15.87,8.72,1.74,3.54,4.33,6.67,6.54,10-1.32,2.1-3.44,1.67-5.39,1.67C2023.14,146.24,2016.17,146.22,2009.2,146.21Z" transform="translate(-9.04 -7)"/><path class="cls-4" d="M2048.21,143.22c.15-3.4-2.37-3.14-4.42-3-3.54.32-4.48-1.39-4.77-4.58-1-10.34-1-10.34,9.42-10.35,5.81,0,11.64.31,17.43-.06,4.57-.29,7,.82,6.15,5.85a11.3,11.3,0,0,0,.09,3.48c.55,3.43-.53,5.47-4.31,5.29-2.41-.12-3.23,1.12-3.05,3.33Z" transform="translate(-9.04 -7)"/><path class="cls-7" d="M2009.2,146.21c7,0,13.94,0,20.9,0,2,0,4.07.43,5.39-1.67q5.34,7.78,10.67,15.59l-36.34.09Q2009.51,153.23,2009.2,146.21Z" transform="translate(-9.04 -7)"/><path class="cls-14" d="M2034.83,174.26l30.72,0q.1,6,.19,12c-7.84.51-15.78-1.05-23.56,1Z" transform="translate(-9.04 -7)"/><path class="cls-13" d="M2042.18,187.22c7.78-2.05,15.72-.49,23.56-1,.06.83.15,1.66.17,2.49.22,12.49-.7,13.27-13.57,12.39a4.27,4.27,0,0,1-3.82-2.6C2046.43,194.72,2044.3,191,2042.18,187.22Z" transform="translate(-9.04 -7)"/><path class="cls-7" d="M2048.21,143.22h16.54q.12,8,.23,16h-16.1Q2048.55,151.22,2048.21,143.22Z" transform="translate(-9.04 -7)"/><path class="cls-11" d="M1524.94,157.23q.3,8,.59,16c-10.22.46-20.52-1-30.69,1l-6.13-9.66-1,.13v7.49H1470q-.13-7-.26-14l34.4-.07c1.63.43,1.58,3.26,3.45,2.86s.57-2.58,1.25-3.79Z" transform="translate(-9.04 -7)"/><path class="cls-4" d="M1469.16,145.22a2,2,0,0,0-.26-.42c-1.92-1.82-5.94,1-6.52-1.8-1.08-5.14-1-10.54-1.21-15.84-.05-1.21,1.36-1.28,2.32-1.26,6,.09,12,.28,17.92.34,1.59,0,2.36,1,3.11,2.09l11.35,16.89Z" transform="translate(-9.04 -7)"/><path class="cls-4" d="M1508.17,142.22c-.47-2.79-2.78-2.05-4.35-1.93-3.51.26-4.51-1.36-4.81-4.59-.94-10.36-1-10.36,9.42-10.37,6.32,0,12.64.19,19,0,3.3-.1,5.09.68,4.6,4.34a10.65,10.65,0,0,0,.08,3c.6,4.44.14,8-5.71,7.58-1.43-.11-1.43,1.06-1.6,2Z" transform="translate(-9.04 -7)"/><path class="cls-13" d="M1488.09,184.92c2.48.7,6.21-1.2,7.35,1.35,1.35,3,1,6.81,1.32,10.28.15,2-1.49,1.91-2.77,2-9.28.46-18.57.86-27.85,1.3-1.56.07-2.56-.49-2.71-2.16,0-.33-.09-.66-.15-1-1.41-8.22-.92-9.09,6.58-11.58,2.94,2.64,15.12,3.18,17.94.77C1488,185.68,1488,185.24,1488.09,184.92Z" transform="translate(-9.04 -7)"/><path class="cls-7" d="M1469.16,145.22h26.71c3,4.15,6.63,7.91,8.27,12.94l-34.4.07Q1469.46,151.74,1469.16,145.22Z" transform="translate(-9.04 -7)"/><path class="cls-9" d="M1494.84,174.26c10.17-2,20.47-.59,30.69-1q.1,6,.2,12c-5.45,0-10.91-.12-16.36.08-2.51.09-5.31-1.1-7.54,1.12A75.49,75.49,0,0,1,1494.84,174.26Z" transform="translate(-9.04 -7)"/><path class="cls-13" d="M1501.83,186.41c2.23-2.22,5-1,7.54-1.12,5.45-.2,10.91-.07,16.36-.08.06,1.16.16,2.32.18,3.48.17,12.7-.46,13.24-13.5,12.38a3.79,3.79,0,0,1-3.59-2.07C1506.55,194.77,1504.17,190.6,1501.83,186.41Z" transform="translate(-9.04 -7)"/><path class="cls-14" d="M1488.09,184.92c-.1.32-.08.76-.29.94-2.82,2.41-15,1.87-17.94-.77l.14-12.87h17.75Q1487.92,178.57,1488.09,184.92Z" transform="translate(-9.04 -7)"/><path class="cls-7" d="M1508.17,142.22h16.58q.09,7.5.19,15h-16.1Q1508.51,149.73,1508.17,142.22Z" transform="translate(-9.04 -7)"/><path class="cls-11" d="M734,153.13l5.6,7.21c1.77-1.15.6-2.88,1.26-4.11h16.1l.6,16H726.15l-5.41-8.68-1,.1v7.58H702q-.16-8-.32-16c8.66,0,17.31,0,26,0C730,155.25,732.35,155.27,734,153.13Z" transform="translate(-9.04 -7)"/><path class="cls-4" d="M740.17,141.22c-.63-3-3.15-1.94-4.85-1.94-2.65,0-3.78-.86-4.2-3.58-1.73-11.36-1.81-11.36,9.8-11.37,6,0,12,.3,17.94,0,4.27-.25,5.68,1.36,5.14,5.34a8.66,8.66,0,0,0,.07,2.49c.7,4.2-.14,7.18-5.27,6.94-1.49-.08-2,.84-2,2.17Z" transform="translate(-9.04 -7)"/><path class="cls-15" d="M734,153.13c-1.63,2.14-4,2.12-6.33,2.11-8.66,0-17.31,0-26,0a63.07,63.07,0,0,1-.51-7.36c.13-3.28-.33-5.27-4.45-4.8s-2.45-2.84-2.66-4.85h29.72Z" transform="translate(-9.04 -7)"/><path class="cls-13" d="M720.92,184.35c2.29-.33,5.71-1.22,6.44.8,1.26,3.46,1.11,7.49,1.24,11.29,0,1-1.55,1-2.52,1.08-9.3.45-18.61.85-27.92,1.31-1.9.09-2.75-.82-2.84-2.63a4.1,4.1,0,0,0-.06-.49c-1.37-8.32-.92-9.11,6.61-11.63.21,1,.55,2,1.77,2q7.92.07,15.84,0C720.4,186.1,720.76,185.21,720.92,184.35Z" transform="translate(-9.04 -7)"/><path class="cls-14" d="M726.15,172.22h31.39l.21,15-22.86,0Q730.51,179.74,726.15,172.22Z" transform="translate(-9.04 -7)"/><path class="cls-4" d="M723.78,138.23H694.06c-1.82-13.61-1.74-12.53,11.69-13.51C716.88,123.9,719.19,131.91,723.78,138.23Z" transform="translate(-9.04 -7)"/><path class="cls-14" d="M720.92,184.35c-.16.86-.52,1.75-1.44,1.76q-7.92.09-15.84,0c-1.22,0-1.56-1-1.77-2l.13-12.86h17.75C720.51,175.56,719,180.11,720.92,184.35Z" transform="translate(-9.04 -7)"/><path class="cls-7" d="M740.17,141.22h16.58l.19,15h-16.1Q740.51,148.73,740.17,141.22Z" transform="translate(-9.04 -7)"/><path class="cls-13" d="M734.89,187.25l22.86,0c.71,12.23.7,12.13-11.27,12.83-3.25.2-5.28-.63-6.66-3.67S736.55,190.29,734.89,187.25Z" transform="translate(-9.04 -7)"/><path class="cls-11" d="M264.93,168.23l-4.18-6v9H243q-.23-9-.44-18l32.47,0,6.45,8.17v-13l16.33-.13q.26,9.48.5,18.94c-9.42,0-18.83,0-28.24.11C268.33,167.28,266.4,166.62,264.93,168.23Z" transform="translate(-9.04 -7)"/><path class="cls-4" d="M297.81,148.21l-16.33.13a13.13,13.13,0,0,1-.31-3c.55-4.43-.67-7.06-5.79-6.23-2.16.35-2.76-1-3.15-2.89-2.36-11.22-1.83-11.92,9.64-11.93,6.31,0,12.64.2,18.95,0,3.31-.12,4.49,1.06,4.17,4.26a20.74,20.74,0,0,0,.13,5c.48,3.4-.47,5.49-4.29,5.33-2.36-.09-3.21,1-3,3.35A54.09,54.09,0,0,1,297.81,148.21Z" transform="translate(-9.04 -7)"/><path class="cls-9" d="M264.93,168.23c1.47-1.61,3.4-.95,5.14-1,9.41-.08,18.82-.08,28.24-.11.71,4.67.47,9.37.41,14.06-6.74,0-13.48,0-20.22,0-1.91,0-4.08-.46-5,2Z" transform="translate(-9.04 -7)"/><path class="cls-4" d="M235.13,140.22c-.36-4.12-.68-8.25-1.1-12.37-.23-2.15.63-3,2.76-3,5.8.16,11.6.34,17.4.37,1.81,0,2.66,1.08,3.5,2.33l7.76,11.53a29.25,29.25,0,0,1-8.34,1.2C249.78,140.14,242.45,140.23,235.13,140.22Z" transform="translate(-9.04 -7)"/><path class="cls-15" d="M235.13,140.22c7.32,0,14.65-.08,22,.06a29.25,29.25,0,0,0,8.34-1.2L275,153.2l-32.47,0a43.85,43.85,0,0,1-.4-4.4c0-3.41.3-6.79-5-5.73C235,143.54,234.93,141.84,235.13,140.22Z" transform="translate(-9.04 -7)"/><path class="cls-13" d="M273.47,183.26c.95-2.47,3.12-2,5-2,6.74,0,13.48,0,20.22,0,.07,5,.16,10,.23,15,0,1.5.2,3-2.1,3.1-3.82.15-7.64.45-11.44.78-2,.18-3-.93-3.86-2.49C278.89,192.78,276.17,188,273.47,183.26Z" transform="translate(-9.04 -7)"/><path class="cls-13" d="M268.78,187.22c1.56,11.31,3.26,10.16-8.79,10.85-6.12.35-12.3.1-18.39.73-4.32.44-5.71-1.14-5.53-5.12.1-2.14-.07-4.3-.12-6.45Z" transform="translate(-9.04 -7)"/><path class="cls-14" d="M268.78,187.22H236c-.13-.86-.09-1.93,1-1.83,6.23.57,6.32-3.34,6-7.79-.16-2.12.07-4.26.12-6.39h17.75a59,59,0,0,1,.16,5.94c-.27,4,.15,7.29,5.45,7.1C268,184.2,269,185.36,268.78,187.22Z" transform="translate(-9.04 -7)"/><path class="cls-4" d="M819.51,142.08c6.27-15.55,29.78-24.06,45.8-15-.45-7,4-5.25,7.85-4.62,9.27,1.51,9.31,1.51,8.78,10.66-.25,4.47-.87,8.93-1,13.41,0,2.74-1.41,3.32-3.67,3.47-4,.26-7.94.62-11.91,1a2.35,2.35,0,0,1-2.65-1.48c-5.49-9.57-10.59-10.79-19.66-4.93-1.6-2.18-3.93-1.11-6-1.31C831.27,142.68,825.26,144.43,819.51,142.08Z" transform="translate(-9.04 -7)"/><path class="cls-8" d="M886.49,177.07q.45,7,.89,14.08a69.9,69.9,0,0,0-7.39.14c-3.12.38-6.59-1.44-9.33,1.39l-1.22-.22c-4.25-2.22-8.84-1.26-13.24-1.14-9.92.29-19.93-1.34-29.77,1.07a24.9,24.9,0,0,1-8.27-12.17c3.12,0,6.25.18,9.36,0,5.35-.35,10.86,1.2,16.05-1.22,8.5,5.08,12.63,4.65,17.25-1.8Z" transform="translate(-9.04 -7)"/><path class="cls-11" d="M886.49,177.07l-25.67.11c-1-3.32-3.65-1.56-5.41-1.54-3.06,0-4.28-1.23-4.34-4-.3-13.15-1.53-10.72,9.42-10.61,7.13.08,14.26.85,21.39,1.09,2.28.08,3.29.83,3.46,3.1C885.63,169.15,886.1,173.11,886.49,177.07Z" transform="translate(-9.04 -7)"/><path class="cls-6" d="M826.43,192.39c9.84-2.41,19.85-.78,29.77-1.07,4.4-.12,9-1.08,13.24,1.14C859.2,204.14,839.06,204.11,826.43,192.39Z" transform="translate(-9.04 -7)"/><path class="cls-11" d="M815.39,168.39c-.53-4.4-.85-8.81.43-13.16l21.78.15a33.76,33.76,0,0,0-.25,12.75Z" transform="translate(-9.04 -7)"/><path class="cls-9" d="M815.39,168.39l22-.26c1.45,4,3,7.91,6.22,10.85-5.19,2.42-10.7.87-16.05,1.22-3.11.2-6.24,0-9.36,0C816.34,176.49,815.76,172.47,815.39,168.39Z" transform="translate(-9.04 -7)"/><path class="cls-7" d="M837.6,155.38l-21.78-.15c-.08-4.75,1.5-9,3.69-13.15,5.75,2.35,11.76.6,17.63,1.17,2,.2,4.36-.87,6,1.31A28.92,28.92,0,0,0,837.6,155.38Z" transform="translate(-9.04 -7)"/><path class="cls-6" d="M870.66,192.68c2.74-2.83,6.21-1,9.33-1.39a69.9,69.9,0,0,1,7.39-.14c.89,6.78.89,6.78-5.85,7.37-1.14.1-2.28.27-3.43.37C871.21,199.5,871.21,199.49,870.66,192.68Z" transform="translate(-9.04 -7)"/><path class="cls-4" d="M313.63,144.15c3.45-11.27,16.11-20,30.18-20.83a27.89,27.89,0,0,1,16.73,4.06c-.56-5.91,2.37-5.84,6.49-5.16,10.35,1.72,10.42,1.54,9.87,11.79-.22,4.16-.85,8.3-.91,12.45,0,2.71-1.33,3.38-3.63,3.53-4,.25-8,.62-11.95,1a2.34,2.34,0,0,1-2.65-1.49c-5.69-9.92-11.47-11-20.41-4.11C329.45,144.79,321.46,146.12,313.63,144.15Z" transform="translate(-9.04 -7)"/><path class="cls-14" d="M381,174.22c1.23,4.61,1,9.32,1,14l-64.33.08c-3.83-4.31-5.67-9.5-6.59-15.09l22.93-.05c2.7,3.82,5.52,7.46,10.38,8.73,5.79,1.51,9.47-.51,11.31-6.32,1.25-1.93,3.23-1.31,5-1.32C367.49,174.19,374.26,174.22,381,174.22Z" transform="translate(-9.04 -7)"/><path class="cls-13" d="M317.73,188.31l64.33-.08c1.82,9.53,1.82,9.52-7.21,10.44-.33,0-.66.1-1,.13-4.5.52-9.37,1.6-8.28-6C346.94,204.59,327.94,202.67,317.73,188.31Z" transform="translate(-9.04 -7)"/><path class="cls-11" d="M381,174.22c-6.76,0-13.53,0-20.3,0-1.73,0-3.71-.61-5,1.32-10.09-.29-10-.29-9.91-10.57,0-2.86.59-4.28,3.79-4.19,9.3.23,18.59.52,27.87,1.31,1.93.17,2.6,1,2.73,2.69C380.47,168,380.76,171.09,381,174.22Z" transform="translate(-9.04 -7)"/><path class="cls-11" d="M334.07,173.17l-22.93.05a41.44,41.44,0,0,1-.83-15.17l21.55.17A35.57,35.57,0,0,0,334.07,173.17Z" transform="translate(-9.04 -7)"/><path class="cls-7" d="M331.86,158.22l-21.55-.17c.41-4.8,1-9.56,3.32-13.9,7.83,2,15.82.64,23.72,1.22C334.48,149.21,333.05,153.66,331.86,158.22Z" transform="translate(-9.04 -7)"/><path class="cls-4" d="M2087.78,141.29c-7.23-1-7.23-1-8.09-9.1-.14-1.33-.26-2.66-.51-4-.45-2.31.34-3.39,2.79-3.41,16.82-.15,33.64-.3,50.46-.57,2.34,0,2.89,1.29,3.08,3a101.12,101.12,0,0,1-.05,19.45,4.21,4.21,0,0,1-.09.49c-.51,2.79-2.84,2.1-4.38,1.87-3.69-.56-10.12,2.27-10.61-1.59-1-7.91-5.73-6.42-10.43-6.45-1,0-2,.16-3,.24Z" transform="translate(-9.04 -7)"/><path class="cls-13" d="M2137.9,188.23c.16,11.93.16,12-11.29,11.77-14.08-.21-28.16-.63-42.24-.58-3.85,0-5-1.15-4.54-4.76.31-2.45.24-5,.33-7.44,4.21,1.26,8.53,1,12.84,1Z" transform="translate(-9.04 -7)"/><path class="cls-14" d="M2137.9,188.23H2093c-4.31,0-8.63.25-12.84-1-.19-1.62-.15-2.91,2.12-3,3.83-.1,5.29-2.38,4.94-6h19.51c.95,1.65-1.62,5.58,2.61,4.93,3.84-.58,9.26,3.14,11.15-3.8,2.14-7.85,2.29-7.81,10.54-7.16.66.06,1.33.07,2,.13,6.43.58,7.36,1.6,5.38,7.59C2137.45,182.79,2138.76,185.52,2137.9,188.23Z" transform="translate(-9.04 -7)"/><path class="cls-11" d="M2107,153a23.86,23.86,0,0,0,4.45.21c4.9-.66,6.9.91,6.86,6.28-.06,8.25.35,8.23-7.61,8.93a34.72,34.72,0,0,0-3.86.78h-19.47l.48-15a68.91,68.91,0,0,0,7.33,0C2099.16,153.75,2103.32,155.56,2107,153Z" transform="translate(-9.04 -7)"/><path class="cls-15" d="M2107,153c-3.72,2.53-7.88.72-11.82,1.16a68.91,68.91,0,0,1-7.33,0q-.06-6.47-.11-12.94l19.19,0C2107,145.17,2107,149.1,2107,153Z" transform="translate(-9.04 -7)"/><path class="cls-9" d="M2087.41,169.22h19.47l-.15,9h-19.51C2087.28,175.22,2087.35,172.22,2087.41,169.22Z" transform="translate(-9.04 -7)"/><path class="cls-13" d="M1455,186.24c0,13.93,0,13.94-13.42,13.74s-27.17-.57-40.75-.58c-3.39,0-4.34-1.12-4-4.25.29-3,.28-6,.4-8.92Z" transform="translate(-9.04 -7)"/><path class="cls-10" d="M1397.13,136.23c-1.24-11.52-1.24-11.59,10.15-11.72,13.26-.15,26.52.07,39.76-.35,4.56-.14,5.86,1.68,5.79,5.62,0,2.15,0,4.3-.08,6.45Z" transform="translate(-9.04 -7)"/><path class="cls-3" d="M1397.13,136.23h55.62c0,.32.12.65.13,1,.17,12,.17,11.87-11.24,12-3.51,0-5.34-.79-5.2-4.46.11-3-1.32-3.76-4.22-3.81-8.28-.16-8.27-.3-8.32,7.78,0,.83-.08,1.65-.12,2.47h-18.85a44.19,44.19,0,0,1-.16-4.87c.27-3.64.15-6.31-5-5.37C1395.9,141.7,1397.47,138.16,1397.13,136.23Z" transform="translate(-9.04 -7)"/><path class="cls-14" d="M1455,186.24h-57.81c-.23-1.58.54-2.91,2-2.69,5.59.86,4.81-3,5-6.31h19.5c1.17,1.89-2,5.6,2.62,6.07,8.58.87,10.08.21,11.5-5.32,1.69-6.63,1.69-6.63,8.58-5.9,10.2,1.08,10.21,1.08,9.22,11.27A27,27,0,0,1,1455,186.24Z" transform="translate(-9.04 -7)"/><path class="cls-12" d="M1404.93,151.23h18.85c1,3.81,4.14,1.93,6.19,1.95,3.57,0,5.18.7,5.26,4.84.19,9.7.45,9.69-9,10.54-.66.06-1.31.14-2,.22-1.15-2-3.13-1.5-4.88-1.52-4.95-.06-9.9,0-14.86-.05Z" transform="translate(-9.04 -7)"/><path class="cls-9" d="M1404.5,167.2c5,0,9.91,0,14.86.05,1.75,0,3.73-.5,4.88,1.52l-.51,8.46h-19.5Z" transform="translate(-9.04 -7)"/><path class="cls-4" d="M1329.14,146.22c.31-3.5-.58-5.78-4.8-5-1.61.28-2.51-.53-2.35-2.28a12.34,12.34,0,0,0,0-1.49c-.27-12.59-.26-12.73,12.21-12.32,9.8.32,19.65-.65,29.39,1.14,6.7,1.24,12.3,4.09,15,10.86,1.19,2.94-.28,6.19,1.07,9.11h-20.57c-1.8-4.06-5.64-5.81-10.41-5.05-3.56.56-1.33,3.46-2.28,5.05Z" transform="translate(-9.04 -7)"/><path class="cls-12" d="M1329.14,146.22h17.29c1.13,2.56-2,6.52,1.69,7.86,2.9,1,6.27-.15,8.75-2.46,1.53-1.42,2-3.39,2.25-5.4h20.57c-.38,7.21-2.4,13.65-8.66,18.05l-41.89-.05Z" transform="translate(-9.04 -7)"/><path class="cls-9" d="M1329.14,164.22l41.89.05c.67,4.64,3.7,8.37,5,12.76-3.72,2.53-7.89.61-11.8,1.19-2,.3-4.35-.72-5.71,1.69-1-2.44-2.08-4.83-2.92-7.32s-1.88-3.27-4.67-2.94c-3.74.44-5.7,1.46-5.09,5.67.38,2.58,0,5.26,0,7.9h-16.73Z" transform="translate(-9.04 -7)"/><path class="cls-13" d="M1329.14,183.22h16.73a10.39,10.39,0,0,0,1.13,2.68c1,1.2,3.76-.83,3.87,1.87a91.08,91.08,0,0,1-.14,11c-.11,1.44-1.82,1.16-2.92,1.13-7.49-.18-15-.48-22.46-.6-1.88,0-2.74-.75-2.92-2.52-.14-1.32-.33-2.64-.48-4-.49-4.22-1.27-8.6,5.43-8C1328.17,184.85,1328.86,184.09,1329.14,183.22Z" transform="translate(-9.04 -7)"/><path class="cls-13" d="M1386.83,190.22c1,10.94,2.32,9.57-8.46,9.79-5.46.12-10.93-.23-16.39-.09-4.5.12-6.9-1.32-6-6.24a28.32,28.32,0,0,0,.21-3.46Z" transform="translate(-9.04 -7)"/><path class="cls-14" d="M1386.83,190.22h-30.61c.08-1.11,0-3.14.27-3.19,5.76-1,2.39-4.49,2-7.12,1.36-2.41,3.71-1.39,5.71-1.69,3.91-.58,8.08,1.34,11.8-1.19a43.84,43.84,0,0,1,2.7,5.11c1,2.74,2,4.89,5.69,4.23C1387.78,185.76,1386.84,188.42,1386.83,190.22Z" transform="translate(-9.04 -7)"/><path class="cls-14" d="M998.64,172.22c0,.83.12,1.66.11,2.48,0,8.18,0,8.11,8.14,7.52,1.94-.14,3.13-.63,3.48-2.66.19-1.14.56-2.25.86-3.37,2.15-8,2.13-7.76,10.65-7.09,4.34.34,5.75,2,5.46,6.16-.28,4,0,8,0,11.94l-55.36,0c-.68-3.21-.47-5.7,3.9-5,2.34.37,3.27-.66,3.17-3s.15-4.63.24-6.95Z" transform="translate(-9.04 -7)"/><path class="cls-13" d="M972,187.22l55.36,0c1.12,12,1.12,12-10.42,12-13.28.06-26.57-.1-39.85.15-4.05.07-5.8-1-5.24-5.21A59.75,59.75,0,0,0,972,187.22Z" transform="translate(-9.04 -7)"/><path class="cls-4" d="M979.94,140.23c-2.09-1.1-5.74,1.53-6.49-1.67a31.1,31.1,0,0,1-.19-13.31c.26-1.24,2-.81,3.13-.79,9.78.16,19.56.46,29.35.49,2.77,0,3.38,1.16,3.25,3.57a25.8,25.8,0,0,0,.14,6c.9,5.11-1.31,7-6.19,6.54-.35-.52-.71-1.48-1.07-1.48C994.55,139.51,987.18,138.18,979.94,140.23Z" transform="translate(-9.04 -7)"/><path class="cls-11" d="M998.64,172.22H979.31a119,119,0,0,1,.54-17H999Q998.79,163.72,998.64,172.22Z" transform="translate(-9.04 -7)"/><path class="cls-15" d="M999,155.22h-19.1l.09-15c7.24-2,14.61-.72,21.93-.69.36,0,.72,1,1.07,1.48-2.19.1-3,1.2-3.11,3.45C999.72,148.06,999.26,151.64,999,155.22Z" transform="translate(-9.04 -7)"/><path class="cls-9" d="M1543.79,182.93q1.64-7.35,3.26-14.7a211.54,211.54,0,0,0,46-.06c1.13,2.89,2.47,5.71,3.32,8.67,1.11,3.87,1.9,7.7,7.42,6.56,1.08-.22,1,1,.9,1.81-3.11,0-6.23.19-9.33,0-5.51-.36-11.13,1.12-16.52-1-.42-2.89-.55-7-3.2-7.65a29.53,29.53,0,0,0-12.76,0c-2,.39-2.05,3.69-1.65,6C1557.29,186.27,1548.32,186.45,1543.79,182.93Z" transform="translate(-9.04 -7)"/><path class="cls-11" d="M1593.09,168.17a211.63,211.63,0,0,1-46,.06l3.42-16.13c3.46.05,6.92.05,10.37.15,2.06.07,4.42-.6,5.61,2-.77,2.85-1.54,5.69-2.31,8.56,9.68,1.48,9.68,1.49,6.39-7.08-.42-1.07-.78-2.17-1.16-3.26,2.11-.07,4.24,0,6.33-.24,3.77-.43,7.75,1.22,11.33-1.12A112.24,112.24,0,0,1,1593.09,168.17Z" transform="translate(-9.04 -7)"/><path class="cls-3" d="M1587,151.09c-3.58,2.34-7.56.69-11.33,1.12-2.09.23-4.22.17-6.33.24-.44-.59-1-1.76-1.28-1.69-1.72.5-.69,2.47-1.64,3.47-1.19-2.58-3.55-1.91-5.61-2-3.45-.1-6.91-.1-10.37-.15q1.88-7.93,3.76-15.87c9.23,2.12,18.58.54,27.87,1A75.18,75.18,0,0,1,1587,151.09Z" transform="translate(-9.04 -7)"/><path class="cls-13" d="M1543.79,182.93c4.53,3.52,13.5,3.34,17.48-.36,5-.21,7.74,1.59,7,7.09a15.39,15.39,0,0,0,.43,4.45c.61,3.59-.18,5.3-4.49,5.22-7.45-.14-14.93.38-22.39.82-2.68.16-4-.53-4.07-3.41,0-1.82-.5-3.62-.61-5.44C1536.7,184.3,1536.73,184.3,1543.79,182.93Z" transform="translate(-9.04 -7)"/><path class="cls-13" d="M1578.88,184.2c5.39,2.12,11,.64,16.52,1,3.1.2,6.22,0,9.33,0,0,4.33,1.58,9.63-.37,12.72-2.14,3.39-7.92,1.19-12.09,1.64-4.46.47-9,.29-13.47.58-2.74.18-4-.84-4.07-3.61a46.08,46.08,0,0,0-.78-6.93C1573.2,185.53,1574.68,183.68,1578.88,184.2Z" transform="translate(-9.04 -7)"/><path class="cls-10" d="M1582.09,137.18c-9.29-.41-18.64,1.17-27.87-1,3.44-14,0-11.57,16-11.83C1580.15,124.23,1579.88,131.35,1582.09,137.18Z" transform="translate(-9.04 -7)"/><path class="cls-4" d="M1034.13,136.23c-.52-12-.52-12,11.31-11.86,13,.2,25.94.72,38.91.64,4.51,0,6.3,1.28,5.81,5.76a45.42,45.42,0,0,0,0,5.47Z" transform="translate(-9.04 -7)"/><path class="cls-3" d="M1034.13,136.23h56.07a1.66,1.66,0,0,1,.19.46c1.36,11.09-.86,13.35-12.05,12.83-2.52-.11-2.7-1.59-2.79-3.2-.36-7.39-6-3.82-9.27-4.18-4.22-.45-1.86,3.25-2.35,5.09a18.12,18.12,0,0,0-.18,4H1043.1a26,26,0,0,1-.14-4.9c.7-4.38-1.27-6-5.38-5.63C1033.89,141.07,1033.47,139.12,1034.13,136.23Z" transform="translate(-9.04 -7)"/><path class="cls-13" d="M1064.21,184.13c9.65.4,9.4.44,10.93,10.16.63,4-.07,5.06-4.17,5-11-.27-22-.16-33,0-2.77,0-3.71-.81-3.9-3.61-.58-9.05-.69-9,8.91-11.38Z" transform="translate(-9.04 -7)"/><path class="cls-11" d="M1043.1,151.22h20.65c.1,2.78-.14,5.22,4.12,5.57,6.85.55,6.83,1,6.45,8-.06,1.15-.24,2.29-.37,3.44h-30.82Z" transform="translate(-9.04 -7)"/><path class="cls-9" d="M1043.13,168.23H1074c.43,2.37.43,4-3,4-7.16.08-7.17.28-7.09,7.42,0,1.48.19,3,.3,4.44l-21.21.11Z" transform="translate(-9.04 -7)"/><path class="cls-4" d="M656.68,143.24c-.32-1.9-.77-3.52-3.36-3.13-3.24.49-3.76-1.38-3.74-4.19.09-10.84,0-10.86,10.56-11.15,6.81-.19,13.63-.11,20.42-.52,3.39-.21,4.52,1,4.23,4.16a18.88,18.88,0,0,0,.07,2.49c.22,7.8.24,7.94-7.57,9.23-2.53.41-2.66,1.24-1.56,3.09Z" transform="translate(-9.04 -7)"/><path class="cls-13" d="M686.05,186.23c2,11.88,2,11.91-9.56,12-6.78.05-13.59-.28-20.36.06-5.11.26-7-1.73-6.33-6.63.23-1.79.2-3.62.3-5.44Z" transform="translate(-9.04 -7)"/><path class="cls-7" d="M656.68,143.24l19.05,0q.15,8,.31,16H657.12Z" transform="translate(-9.04 -7)"/><path class="cls-14" d="M686.05,186.23H650.1c-.26-2.79,2-3,3.61-2.81,3.94.4,4.44-1.53,4-4.71a45.35,45.35,0,0,1,0-5.47h19a22.15,22.15,0,0,1,.17,2.93c-.3,4.36-.25,8.24,6.06,7.37C683.69,183.42,686.5,183.65,686.05,186.23Z" transform="translate(-9.04 -7)"/><path class="cls-11" d="M676.71,173.22h-19c-.88-4.64-.69-9.33-.59-14H676A71.15,71.15,0,0,1,676.71,173.22Z" transform="translate(-9.04 -7)"/><path class="cls-4" d="M1964.78,146.23c-.29-3-.55-6-5-5.21-1.36.24-2.16-.77-2.13-2.14.07-3.65.24-7.3.3-10.95,0-2,1.38-1.94,2.74-2l28.88-.64c.5,0,1.19-.2,1.46.05,3.6,3.32,1,7.71,1.9,11.53.37,1.67.28,3.4-2.25,3.4-.82,0-1.64.46-2.44.43-4-.18-5.79,1.37-4.5,5.49Z" transform="translate(-9.04 -7)"/><path class="cls-13" d="M1985.19,184.13c9.41.36,9.27.37,9.61,9.94.13,3.73-.66,5.34-4.82,5.2-8.62-.3-17.27-.34-25.89,0-5.21.23-6.54-1.85-6.36-6.68.27-7.4,0-7.41,8.11-8.43Z" transform="translate(-9.04 -7)"/><path class="cls-9" d="M1985.19,184.13l-19.35.06-.63-19,19.11-.11Z" transform="translate(-9.04 -7)"/><path class="cls-12" d="M1984.32,165.11l-19.11.11q-.21-9.5-.43-19h19Z" transform="translate(-9.04 -7)"/><path class="cls-13" d="M804.92,183.48c3.45-.06,2.27,2.72,2.44,4.35,1.08,10.28,1,10.32-9,10.39-7.45.05-14.91-.15-22.36,0-3.86.09-5.57-1.37-5.14-5.24a22.8,22.8,0,0,0,0-2.48c0-6.95,0-6.95,7.14-6.83a2,2,0,0,0,2.2,1.55h22.23C803.67,185.24,804.67,184.91,804.92,183.48Z" transform="translate(-9.04 -7)"/><path class="cls-4" d="M774.93,140c-3.21.59-4.41-.57-4.37-4,.09-10.94,0-11,11-11.27,6.66-.19,13.34-.1,20-.52,3.45-.21,4.43,1.12,4.21,4.22a16.44,16.44,0,0,0,.14,4.49c1,4.85-.83,7.13-5.79,6.87a2.46,2.46,0,0,0-2.34-1.53q-10.42,0-20.84,0A1.93,1.93,0,0,0,774.93,140Z" transform="translate(-9.04 -7)"/><path class="cls-11" d="M796.89,154.22q.39,8.5.76,17H778.53a111.94,111.94,0,0,1-.48-17Z" transform="translate(-9.04 -7)"/><path class="cls-15" d="M796.89,154.22H778.05c-.22-3.62-.47-7.24-.63-10.87-.08-1.72-.1-3.39-2.49-3.33a1.93,1.93,0,0,1,2-1.75q10.42,0,20.84,0a2.46,2.46,0,0,1,2.34,1.53c-2.57.17-3.56,1.37-3.34,4.09C797.1,147.33,796.89,150.78,796.89,154.22Z" transform="translate(-9.04 -7)"/><path class="cls-14" d="M778.53,171.2h19.12c.09,1.64.21,3.28.24,4.92.13,6.88.12,6.88,7,7.35-.25,1.43-1.25,1.76-2.53,1.75H780.16a2,2,0,0,1-2.2-1.55C780,179.61,777.74,175.33,778.53,171.2Z" transform="translate(-9.04 -7)"/><path class="cls-8" d="M961.52,181.38c-6.34,13.75-17.56,19.19-32.14,18.76-14.36-.43-25-7.34-29.42-18.91Z" transform="translate(-9.04 -7)"/><path class="cls-9" d="M961.52,181.38,900,181.23c-2.78-5-3.34-10.47-3.71-16h20.57a43.41,43.41,0,0,0,1.73,5.2c1.54,3.29,3.34,6.55,7.09,7.73,9.8,3.1,14.39.3,18.27-10.93l21.31,0A33.69,33.69,0,0,1,961.52,181.38Z" transform="translate(-9.04 -7)"/><path class="cls-3" d="M958,135.06c4,4.64,6,10.15,6.78,16.16H942.88c-2.38-4.92-5.3-9.06-11.59-9.06-6.1,0-10.26,2.81-12.77,8.27-5.32-.07-10.65-.18-16-.19-2.13,0-4-.21-4.83-2.57a23.56,23.56,0,0,1,4.64-11.61c2.27.36,4.41,1.23,6.81,1.21,14.6-.09,29.2-.05,43.8,0C955,137.24,957,137.43,958,135.06Z" transform="translate(-9.04 -7)"/><path class="cls-10" d="M958,135.06c-1,2.37-3,2.18-5,2.18-14.6,0-29.2-.05-43.8,0-2.4,0-4.54-.85-6.81-1.21,10.17-17.58,43-17.81,53-3.83C956.11,133.3,957.7,133.58,958,135.06Z" transform="translate(-9.04 -7)"/><path class="cls-12" d="M942.88,151.23h21.91a35.11,35.11,0,0,1,.43,16l-21.31,0A62.14,62.14,0,0,0,942.88,151.23Z" transform="translate(-9.04 -7)"/><path class="cls-12" d="M897.71,147.68c.81,2.36,2.7,2.57,4.83,2.57,5.33,0,10.66.12,16,.19-1.69,4.8-1.7,9.79-1.7,14.78H896.25C895.76,159.29,895.78,153.4,897.71,147.68Z" transform="translate(-9.04 -7)"/><path class="cls-8" d="M224.52,181.38c-6.34,13.75-17.55,19.19-32.14,18.76-14.36-.43-25-7.34-29.42-18.91Z" transform="translate(-9.04 -7)"/><path class="cls-9" d="M224.52,181.38,163,181.23c-3-5.65-3.66-11.77-3.8-18h20.59a25.57,25.57,0,0,0,2.15,8.1c3.89,7.89,13.42,10.45,20,5.37,3.42-2.65,3.92-6.73,5.13-10.47l21.43.11A38.79,38.79,0,0,1,224.52,181.38Z" transform="translate(-9.04 -7)"/><path class="cls-3" d="M221.09,135.16a25.9,25.9,0,0,1,6.11,13.55c-1.15,2-3.15,1.47-4.9,1.51-5.64.1-11.28.14-16.92.2-2.23-5.07-5.65-8.46-11.63-8.23-5.73.22-9.95,2.7-12.19,8.15-1-2.3-3.07-2.09-5-2.1l-16.15-.11a25.7,25.7,0,0,1,5.63-12.9,25,25,0,0,0,6.85,1c14.14-.08,28.29-.05,42.43,0C217.32,136.25,219.3,136.25,221.09,135.16Z" transform="translate(-9.04 -7)"/><path class="cls-10" d="M221.09,135.16c-1.79,1.09-3.77,1.09-5.79,1.09-14.14,0-28.29-.06-42.43,0a25,25,0,0,1-6.85-1c11.13-15.85,39.43-17.64,52.08-3.26C219.07,133.07,220.71,133.53,221.09,135.16Z" transform="translate(-9.04 -7)"/><path class="cls-12" d="M205.38,150.42c5.64-.06,11.28-.1,16.92-.2,1.75,0,3.75.54,4.9-1.51a39.07,39.07,0,0,1,1.25,17.62L207,166.22C207,160.9,207.13,155.56,205.38,150.42Z" transform="translate(-9.04 -7)"/><path class="cls-12" d="M160.39,148.13l16.15.11c2,0,4-.2,5,2.1a41.28,41.28,0,0,0-1.81,12.88H159.16A46.2,46.2,0,0,1,160.39,148.13Z" transform="translate(-9.04 -7)"/><path class="cls-2" d="M1213,102.23a257,257,0,0,0,7.29-24.9c.76-1,1.49-1.5,2.06.14L1232.56,104c2,4.1,1.08,5.71-3.75,5.44-5.77-.33-11.53,1.18-17.56.64C1211.84,107.34,1212.39,104.78,1213,102.23Zm8.53-20L1214.12,108l16.81-1Z" transform="translate(-9.04 -7)"/><path class="cls-1" d="M1709,141.11a51.06,51.06,0,0,1-11.09-15.88c-2.22-6.14-2.68-12.57-3.14-19q.54-10,1.07-20c1.7-4.23,3.3-8.51,5.13-12.68,2-4.52,5.52-7.85,9-11.14,8.26-4.6,16.94-6.47,26.36-4.4,4,.88,7.21,3.2,10.61,5.22,9.34,9.42,11.48,21.6,13.06,34,.34,12.29-.34,24.43-5.16,36C1744.14,151.92,1723.74,151.87,1709,141.11Zm49-37.37c-.35-9.36-1.43-19.39-5.7-28.84s-11.47-15.17-21.93-15.45c-11.1-.29-20.6,3.4-26.43,13.68-5.16,9.1-6.5,19.13-6.8,29.33-.33,11.37,1.53,22.32,8.72,31.56,6.94,8.9,16.32,13.14,27.58,11.78,11.82-1.43,18.29-9.15,21.61-20.06C1757.07,118.83,1757.8,111.75,1757.92,103.74Z" transform="translate(-9.04 -7)"/><path class="cls-1" d="M1359.12,146.22c-.25,2-.72,4-2.25,5.4-2.48,2.31-5.85,3.51-8.75,2.46-3.66-1.34-.56-5.3-1.69-7.86,1-1.59-1.28-4.49,2.28-5.05C1353.48,140.41,1357.32,142.16,1359.12,146.22Zm-10.56,1.43c1.22,1.24-1.72,4.57,2.19,4.22,2.93-.26,5.82-1.67,5.87-5,.05-3.55-3.39-3.14-5.64-3.42C1347.18,142.94,1349.56,146.2,1348.56,147.65Z" transform="translate(-9.04 -7)"/><path class="cls-1" d="M1566.44,154.23c1-1-.08-3,1.64-3.47.24-.07.84,1.1,1.28,1.69.38,1.09.74,2.19,1.16,3.26,3.29,8.57,3.29,8.56-6.39,7.08C1564.9,159.92,1565.67,157.08,1566.44,154.23Z" transform="translate(-9.04 -7)"/><path class="cls-1" d="M916.82,165.22c0-5,0-10,1.7-14.78,2.51-5.46,6.67-8.28,12.77-8.27,6.29,0,9.21,4.14,11.59,9.06a62.14,62.14,0,0,1,1,16c-3.88,11.23-8.47,14-18.27,10.93-3.75-1.18-5.55-4.44-7.09-7.73A43.41,43.41,0,0,1,916.82,165.22Zm25-2.12a30.9,30.9,0,0,0-2.11-12.63c-1.48-3.72-4.32-6-8.31-6.06s-7.64,1.18-9.59,5c-3.47,6.87-4,14-.69,21.05,2,4.29,7.2,7.2,11.33,6.56,4.89-.76,7.44-4,8.45-8.56C941.42,166.23,941.7,163.93,941.84,163.1Z" transform="translate(-9.04 -7)"/><path class="cls-1" d="M179.75,163.22a41.28,41.28,0,0,1,1.81-12.88c2.24-5.45,6.46-7.93,12.19-8.15,6-.23,9.4,3.16,11.63,8.23,1.75,5.14,1.66,10.48,1.64,15.8-1.21,3.74-1.71,7.82-5.13,10.47-6.57,5.08-16.1,2.52-20-5.37A25.57,25.57,0,0,1,179.75,163.22Zm25.21-.57c-.22-5.35-.78-9.28-2.61-12.89a10,10,0,0,0-16.95-1.34c-4.32,5.79-4.56,17.68-.34,23.61A11,11,0,0,0,195.77,177c4.46-.56,6.91-3.67,8-7.81C204.46,166.6,205.09,164,205,162.65Z" transform="translate(-9.04 -7)"/></svg>