<svg id="Layer_1" data-name="Layer 1" xmlns="http://www.w3.org/2000/svg" viewBox="0 0 683.1 1755.86"><defs><style>.cls-1{fill:#1e1e1e;}.cls-2{fill:#efefef;}.cls-3{fill:#c9c9c9;}.cls-4{fill:none;stroke:#020202;stroke-miterlimit:10;stroke-width:3px;}</style></defs><title>Artboard 3</title><path class="cls-1" d="M600.28,879.79l67.11,2.65,6.77,2.18s2.66,1.76,2.84,4,3.23,124,3.23,124l-97.6-1.62,10.2-126.26,1.09-1.21,3.09-.33,2.37-1.14Z"/><path class="cls-1" d="M581.93,1095.76a2.65,2.65,0,0,1,2.69-2.4h0l91.1,1.94a2.65,2.65,0,0,1,2.59,2.79c-1.32,23.84-10.4,196.68,0,226.42,6.4,18.23-127,18.83-141.23,18.84a2.77,2.77,0,0,0-1.73.65c-20.52,16.63-655,208.89-477.5,373.88L10.06,1666.5a2.75,2.75,0,0,1-.77-2.08c.69-8.39-37.91-24.81,37.38-117.22,33.91-41.63,98.65-90.33,214.89-144.66a2.14,2.14,0,0,1,.42-.16c3.2-.88,39-16.17,85.5-29.34,63.27-17.92,143.72-35.86,164.37-44.78,45.87-19.82,63.69-29.85,63.79-93.71C575.75,1168,580.79,1108.39,581.93,1095.76Z"/><path class="cls-2" d="M663.35,1460.65c-11.78,26.43-98.5,122.25-98.5,122.25s-61.51,80.8-227.23,146.29S57.4,1718.94,57.4,1718.94s-57.93-60.51-13.88-113.86S189,1467.3,309.29,1422.16s226.61-78.81,226.61-78.81c12.22-6.21,101-67.49,132.46-36.07C698.32,1335,666.24,1453.94,663.35,1460.65Z"/><polyline class="cls-3" points="582.63 1010.98 581.93 1095.76 678.3 1098.09 680.23 1012.6"/><polyline class="cls-3" points="600.28 879.79 667.39 882.43 683.1 28.11 613.52 67.77"/><line class="cls-4" x1="80.27" y1="1619.66" x2="469.97" y2="1384.16"/><line class="cls-4" x1="127.85" y1="1631.36" x2="469.08" y2="1425.15"/><line class="cls-4" x1="186.65" y1="1646.11" x2="469.16" y2="1475.39"/><line class="cls-4" x1="234.99" y1="1658.06" x2="468.79" y2="1516.77"/><line class="cls-4" x1="279.94" y1="1669.26" x2="468.99" y2="1555.01"/><line class="cls-4" x1="326.83" y1="1680.3" x2="468.63" y2="1594.61"/></svg>