<?xml version="1.0" encoding="utf-8"?>
<!-- Generator: Adobe Illustrator 23.0.3, SVG Export Plug-In . SVG Version: 6.00 Build 0)  -->
<svg version="1.1" id="Layer_1" xmlns="http://www.w3.org/2000/svg" xmlns:xlink="http://www.w3.org/1999/xlink" x="0px" y="0px"
	 viewBox="0 0 109.6 107" style="enable-background:new 0 0 109.6 107;" xml:space="preserve">
<style type="text/css">
	.st0{fill:#ADADAD;stroke:#636363;stroke-width:5;stroke-miterlimit:10;}
	.st1{fill:url(#SVGID_1_);stroke:#231F20;stroke-width:5;stroke-miterlimit:10;}
	.st2{fill:none;stroke:#6B6B6B;stroke-width:5;stroke-miterlimit:10;}
</style>
<title>Menu_Buttons</title>
<path class="st0" d="M13.3,11.4c9.4-3.2,23.6-6.7,41.1-6.8c18.2-0.1,33,3.6,42.6,6.8c2.1,2.1,5.5,5,6.8,9.5c1.8,5.9,2.8,14,2.8,22.9
	v19.9c0,17.9-4.3,32.4-9.7,32.4c-10.6,3.3-26.4,6.8-45.8,6.3c-15.6-0.4-28.5-3.4-38-6.3c-2.1-2.1-5.5-5-6.8-9.5
	c-1.8-5.9-2.8-14-2.8-22.9V43.8C3.6,25.9,8,11.4,13.3,11.4z"/>
<linearGradient id="SVGID_1_" gradientUnits="userSpaceOnUse" x1="-47.6596" y1="107" x2="-47.6596" y2="107">
	<stop  offset="0" style="stop-color:#00A1E1;stop-opacity:0.95"/>
	<stop  offset="0.1" style="stop-color:#0A8CCA;stop-opacity:0.95"/>
	<stop  offset="0.27" style="stop-color:#186CA6;stop-opacity:0.95"/>
	<stop  offset="0.44" style="stop-color:#24538A;stop-opacity:0.95"/>
	<stop  offset="0.62" style="stop-color:#2C4176;stop-opacity:0.95"/>
	<stop  offset="0.81" style="stop-color:#31376A;stop-opacity:0.95"/>
	<stop  offset="1" style="stop-color:#333366;stop-opacity:0.95"/>
</linearGradient>
<path class="st1" d="M-47.7,107"/>
<path class="st2" d="M20.2,37.4c4.1,0,43.3,0,58.8,0C75.5,48.3,72,59.1,68.4,70c-10,0-20.1,0-30.1,0c-2.4,0-4.8,0-7.2,0
	C27.5,59.1,23.8,48.3,20.2,37.4z"/>
<circle class="st2" cx="30.2" cy="76.3" r="6.3"/>
<circle class="st2" cx="68.7" cy="76.3" r="6.3"/>
<polyline class="st2" points="79,37.4 82.3,28.1 93.8,28.1 "/>
<line class="st2" x1="49.6" y1="37.4" x2="49.6" y2="70"/>
<line class="st2" x1="64.8" y1="39.2" x2="57" y2="70"/>
<line class="st2" x1="32.9" y1="37.4" x2="41" y2="70"/>
<polyline class="st2" points="23.2,49.5 73.9,49.5 73.9,50.9 "/>
<line class="st2" x1="27.9" y1="60.4" x2="71.5" y2="60.4"/>
</svg>
