<svg id="Layer_1" data-name="Layer 1" xmlns="http://www.w3.org/2000/svg" xmlns:xlink="http://www.w3.org/1999/xlink" viewBox="0 0 108.08 102.91"><defs><style>.cls-1{fill:#adadad;stroke:#636363;opacity:0.5;}.cls-1,.cls-2,.cls-3{stroke-miterlimit:10;stroke-width:5px;}.cls-2{stroke:#231f20;fill:url(#Ikke-navngivet_forløb);}.cls-3{fill:none;stroke:#6b6b6b;}</style><linearGradient id="Ikke-navngivet_forløb" x1="60.87" y1="107" x2="60.87" y2="107" gradientUnits="userSpaceOnUse"><stop offset="0" stop-color="#00a1e1" stop-opacity="0.95"/><stop offset="0.1" stop-color="#0a8cca" stop-opacity="0.95"/><stop offset="0.27" stop-color="#186ca6" stop-opacity="0.95"/><stop offset="0.44" stop-color="#24538a" stop-opacity="0.95"/><stop offset="0.62" stop-color="#2c4176" stop-opacity="0.95"/><stop offset="0.81" stop-color="#31376a" stop-opacity="0.95"/><stop offset="1" stop-color="#336" stop-opacity="0.95"/></linearGradient></defs><title>shop_button</title><path class="cls-1" d="M121.83,11.36a132,132,0,0,1,83.72,0c2.15,2.13,5.49,5,6.85,9.49a83.75,83.75,0,0,1,2.83,22.91V63.7c0,17.9-4.33,32.4-9.68,32.4a141.6,141.6,0,0,1-45.75,6.3,141.05,141.05,0,0,1-38-6.3c-2.15-2.12-5.49-4.95-6.84-9.49a83.6,83.6,0,0,1-2.84-22.91V43.76C112.15,25.87,116.49,11.36,121.83,11.36Z" transform="translate(-109.65 -2.05)"/><path class="cls-2" d="M60.87,107" transform="translate(-109.65 -2.05)"/><path class="cls-3" d="M128.75,37.42h58.77Q182.26,53.7,177,70H139.6Q134.19,53.69,128.75,37.42Z" transform="translate(-109.65 -2.05)"/><circle class="cls-3" cx="29.05" cy="74.26" r="6.33"/><circle class="cls-3" cx="67.62" cy="74.26" r="6.33"/><polyline class="cls-3" points="77.87 35.38 81.19 26.04 92.64 26.04"/><line class="cls-3" x1="48.49" y1="35.38" x2="48.49" y2="67.93"/><line class="cls-3" x1="63.71" y1="37.19" x2="55.87" y2="67.93"/><line class="cls-3" x1="31.76" y1="35.38" x2="39.9" y2="67.93"/><polyline class="cls-3" points="22.11 47.47 72.75 47.47 72.75 48.87"/><line class="cls-3" x1="26.76" y1="58.34" x2="70.43" y2="58.34"/></svg>